<?xml version="1.0" encoding="UTF-8"?>
<svg id="Layer_1" xmlns="http://www.w3.org/2000/svg" version="1.1" viewBox="0 0 512 512">
  <!-- Generator: Adobe Illustrator 29.3.1, SVG Export Plug-In . SVG Version: 2.1.0 Build 151)  -->
  <defs>
    <style>
      .st0 {
        fill: #f9e8f8;
      }

      .st1 {
        fill: #fff;
      }

      .st2 {
        fill: #69b1de;
      }

      .st3 {
        fill: #4b25c2;
      }

      .st4 {
        fill: #b897c9;
      }

      .st5 {
        fill: #c74fb7;
      }

      .st6 {
        fill: #d2bade;
      }
    </style>
  </defs>
  <ellipse class="st2" cx="221.4" cy="204.7" rx="178.9" ry="178.7"/>
  <g>
    <path class="st5" d="M225.4,391.1l-7.4,9.7s1.1,12.3,6.7,24.3c3.9,8.5,16,16.5,17.1,22.9,1.1,6.3,8.5,17.5,19.9,13.7,11.4-3.8,18.1-13,18.3-21.6.2-8.6-6.8-31.1-2.2-56.1,1.5-8.3-21.1-11.8-22.2-11.8s-29.1,17.8-29.1,17.8"/>
    <path class="st3" d="M307,324.8c7,3.8,49.9,38.1,92.1,5.1,42.2-33,77.1-22.6,97.3-3.4l-27.5-2.5s37.8,11.4,43.1,56.2c0,0-27-20.2-56.4-22l12.3,14.2s-13.5-4.9-24.3-4.3c-10.8.6-55.4,29.8-103.3-6.9-47.9-36.8-33.3-36.2-33.3-36.2Z"/>
    <path class="st0" d="M154,353.3s-29.4,29.3-46.2,36.3c-11.6,4.8,5.4,35.7,22.4,35.7,17.1,0,63.3-27.7,70.3-34.9,11.2-11.5,3.1-23,3.1-23,0,0-11.8-19.6-13.5-18.9-1.7.8-2.6.3-8.3-1.2-5.7-1.5-27.8,5.9-27.8,5.9Z"/>
    <path class="st5" d="M119.9,310.1s-29.4,29.3-46.2,36.3c-11.6,4.8,5.4,35.7,22.4,35.7,17.1,0,63.3-27.7,70.3-34.9,11.2-11.5,3.1-23,3.1-23,0,0-11.8-19.6-13.5-18.9-1.7.8-2.6.3-8.3-1.2-5.7-1.5-27.8,5.9-27.8,5.9Z"/>
    <path class="st0" d="M105.1,313.1c23.2-6.9,40.9,47.1,72.6,74.9,17.6,15.4,55.3,36.2,78.4,39.7,55.9,8.4,90.8-11.9,92.7-63.3.6-15.1-5.5-34.7-18.1-43.6-9.1-6.4-20.2-10.8-29.9-16.2-23.9-13.3-55-29.7-67.8-55.3-17.4-35.1-93.6,31.6-93.6,31.6l-34.3,32.4Z"/>
    <g>
      <path class="st0" d="M63.2,202.2s-21.8-46.5-14.6-64c7.2-17.5,45,2.5,44.7,37.8-.3,35.3-22.3,34.2-30.1,26.2Z"/>
      <path class="st5" d="M63.3,192.2s-12.4-32.8-10-41.3c2.4-8.5,21.3,26,23,34,1.7,8.1-3.6,11.3-13,7.3Z"/>
    </g>
    <path class="st0" d="M94.4,172.2s-21.8,10.7-44.1,33.5c-22.3,22.8-20.6,24.3-43.1,41.6-22.5,17.2,11.4,73.1,50.2,75.7,15,1,30.2,0,82.2-9.7,52-9.7,104.6-44.5,85.9-102.3-18.8-57.8-131-38.8-131-38.8Z"/>
    <path class="st3" d="M228.9,212.3s-15.3-43.8-43.6-65.4c-43.5-33.2-108.3-6.6-124.1-25.3,0,0-12,16.6,7.9,28.3,0,0-14.1,1.6-30.6,34.8h11.9c0,0-20.7,6-28.7,35.4,0,0,38.4,26.8,96.9,16.6,30.7-5.3,41.2-15.4,41.2-15.4,0,0-8.1,9.3-10.9,29.5,0,0,19.1-11.6,33.9-25.2,20.3-18.8,25.2-29.2,46.3-13.3Z"/>
    <path class="st3" d="M117.1,269.1c-7.6,7.2-16.7,9-20.4,3.9-3.6-5.1-.4-15,7.2-22.2,7.6-7.2,16.7-9,20.4-3.9s.4,15-7.2,22.2Z"/>
    <path class="st3" d="M68.2,234.8c-7.6,7.2-16.7,9-20.4,3.9-3.6-5.1-.4-15,7.2-22.2,7.6-7.2,16.7-9,20.4-3.9,3.6,5.1.4,15-7.2,22.2Z"/>
    <g>
      <path class="st0" d="M179.6,242.7s-11.2-50.1-.4-65.6c10.8-15.5,43.4,12.2,35.5,46.6-7.9,34.4-29.2,28.5-35.1,19Z"/>
      <path class="st5" d="M181.8,232.9s-5-34.7-.8-42.5c4.2-7.8,15.1,30,15.1,38.2,0,8.3-6,10.3-14.3,4.3Z"/>
    </g>
    <path class="st3" d="M215.7,182.7s13.3,27.3,24.6,48.3c11.4,21,24.7,47.4,48.7,60.8,24,13.3,3.7,44.9-18.8,40.1,0,0,7.3-6,7.2-21,0,0-4.8,13.9-18.5,13.9,0,0-12.7-7.8-15.7-50.7,0,0-4.4,17.3-22.4,14.8,0,0,5.8-32.9,1.6-48.1l-8.9,10.3s8.3-49.1-12.8-72.1l14.7,3.8Z"/>
    <path class="st5" d="M57.4,323c4.2.3,8.5.4,13.6.2,1.4-11.1,2.6-34.6-16.7-55.1-23-24.5-45.6-19.6-48.6-19.3-1.4,1.3-2.5,2.8-3.5,4.5-10.9,21.5,20.1,67.3,55.2,69.7Z"/>
    <path class="st0" d="M282.5,414.6l-7.4,9.7s1.1,12.3,6.7,24.3c3.9,8.5,16,16.5,17.1,22.9,1.1,6.3,8.5,17.5,19.9,13.7,11.4-3.8,18.1-13,18.3-21.6.2-8.6-6.8-31.1-2.2-56.1,1.5-8.3-21.1-11.8-22.2-11.8-1.2,0-29.1,17.8-29.1,17.8"/>
    <g>
      <path class="st6" d="M147.6,179.4l-39.6-110.8c-1.2-3.3-4.7-5.4-8.4-5.1h0c-3.9.4-7,3.3-7.3,6.9l-10.4,116s4,16.5,35.2,13.7c31.1-2.8,30.6-20.7,30.6-20.7Z"/>
      <path class="st4" d="M105.9,182.3c-15,0-25.5-9.3-25.9-9.7-1.8-1.6-1.9-4.4-.3-6.1,1.6-1.8,4.4-1.9,6.1-.3.2.2,9.5,8.3,22,7.4,9.1-.7,17.9-5.9,26.1-15.6,1.5-1.8,4.3-2.1,6.1-.5,1.8,1.5,2.1,4.3.5,6.1-9.8,11.6-20.6,17.9-32.2,18.6-.8,0-1.6,0-2.4,0Z"/>
      <path class="st4" d="M106,142.5c-11.3,0-20.8-5.9-21.2-6.2-2-1.3-2.6-4-1.3-6,1.3-2,4-2.6,6-1.3.2.1,10.9,6.7,21.2,4.4,5.1-1.2,9.3-4.4,12.6-9.7,1.3-2,4-2.7,6-1.4,2,1.3,2.7,4,1.4,6-4.6,7.3-10.7,11.9-18.1,13.6-2.2.5-4.4.7-6.5.7Z"/>
      <path class="st4" d="M103.3,101.2c-7.3,0-13.5-3.8-13.8-4-2-1.3-2.6-4-1.3-6,1.3-2,4-2.6,6-1.3,0,0,3.4,2.1,7.3,2.6,4.7.6,8.1-1.1,10.7-5.3,1.3-2,4-2.7,6-1.4,2,1.3,2.7,4,1.4,6-3,4.8-7.1,7.9-12,9-1.5.3-2.9.5-4.3.5Z"/>
    </g>
  </g>
  <polygon class="st1" points="213.8 95.4 219.3 92.5 218.2 98.6 222.6 102.9 216.6 103.8 213.8 109.3 211.1 103.8 205 102.9 209.4 98.6 208.4 92.5 213.8 95.4"/>
  <polygon class="st1" points="328.9 152.9 336.6 148.9 335.1 157.4 341.3 163.4 332.8 164.7 328.9 172.4 325.1 164.7 316.6 163.4 322.7 157.4 321.3 148.9 328.9 152.9"/>
  <polygon class="st1" points="316.7 218.3 320.9 216.2 320.1 220.8 323.4 224.1 318.8 224.7 316.7 228.9 314.6 224.7 310 224.1 313.4 220.8 312.6 216.2 316.7 218.3"/>
  <polygon class="st1" points="244.2 169.6 247.2 168.1 246.6 171.4 249.1 173.8 245.7 174.3 244.2 177.3 242.7 174.3 239.4 173.8 241.8 171.4 241.2 168.1 244.2 169.6"/>
  <polygon class="st1" points="308.3 92.5 311.3 90.9 310.7 94.2 313.1 96.6 309.8 97.1 308.3 100.1 306.8 97.1 303.4 96.6 305.8 94.2 305.3 90.9 308.3 92.5"/>
</svg>