<?xml version="1.0" encoding="UTF-8"?>
<svg id="Layer_1" xmlns="http://www.w3.org/2000/svg" version="1.1" viewBox="0 0 512 512">
  <!-- Generator: Adobe Illustrator 29.3.1, SVG Export Plug-In . SVG Version: 2.1.0 Build 151)  -->
  <defs>
    <style>
      .st0 {
        fill: #f9e8f8;
      }

      .st1 {
        fill: #fff;
      }

      .st2 {
        fill: #69b1de;
      }

      .st3 {
        fill: #4b25c2;
      }

      .st4 {
        fill: #b897c9;
      }

      .st5 {
        fill: #c74fb7;
      }

      .st6 {
        fill: #d2bade;
      }
    </style>
  </defs>
  <path class="st2" d="M160.5,233.5c1.2-20.3-9.9-39.1-17.4-58.2-7.9-20.2-11.9-42.2-7.6-63.3,4.3-21.1,17.8-41.2,38.1-50.8,13.7-6.5,29.4-7.9,43.9-12.8,30.2-10.1,53.4-34.5,83.7-44.3,37.8-12.2,83.4,2.8,105,34.5,6.7,9.8,11.2,20.8,18.9,29.9,16.2,19,44.1,26.9,58.8,47,16.1,21.9,11.6,51.8,2.3,76.9-7.4,20-16.9,39-21.6,59.9-4.8,21.2-1.5,44.8-11.1,64.7-3.2,6.7-7.8,12.7-13,18.1-62.1,64.8-129.2-2.2-199.9,7.4-23.6,3.2-43.9,8.5-63.6-6.9-34.9-27.1-18.5-67-16.5-102.3Z"/>
  <g>
    <g>
      <path class="st6" d="M302.2,213.4l-9.1-94.8c-.3-2.8-2.6-5.2-5.6-5.7h0c-3.1-.5-6.1,1.2-7.1,4l-31.1,89s0,13.7,24.9,17.7c25,4,28.1-10.2,28.1-10.2Z"/>
      <path class="st4" d="M268.5,208.3c-11.9-3.1-18.3-12.6-18.6-13-1.3-2-.8-4.7,1.2-6.1,2-1.3,4.7-.8,6.1,1.2.1.2,5.7,8.1,15.3,9.8,7,1.2,14.7-1.1,22.8-6.9,2-1.4,4.7-1,6.1,1,1.4,2,1,4.7-1,6.1-10.1,7.3-20.1,10.1-29.6,8.4-.8-.1-1.5-.3-2.3-.5Z"/>
      <path class="st4" d="M276.5,177c-8.9-2.3-15.3-8.9-15.6-9.3-1.7-1.8-1.6-4.5.2-6.2,1.8-1.7,4.5-1.6,6.2.2.1.2,7,7.2,15.1,7.4,4,0,7.7-1.5,11.2-4.9,1.7-1.7,4.5-1.6,6.2.1,1.7,1.7,1.6,4.5-.1,6.2-5.2,5-11.1,7.5-17.5,7.3-2,0-3.9-.3-5.7-.8Z"/>
      <path class="st4" d="M282.5,144.1c-5.7-1.5-9.7-5.5-10.2-6.1-1.7-1.8-1.6-4.5.2-6.2,1.7-1.7,4.5-1.6,6.2.2,1.2,1.3,7.5,7.2,13.5,1.4,1.7-1.7,4.5-1.6,6.2.1,1.7,1.7,1.6,4.5-.1,6.2-3.4,3.3-7.5,5-11.8,4.9-1.4,0-2.7-.2-3.9-.6Z"/>
    </g>
    <path class="st0" d="M165.8,504.4c-19.2-3.8-32.1-21.9-29-41.2,1.9-11.8,7-27.9,18.9-48.4,28.5-48.6,32.7-104.5,71.8-104.5s69.7,0,85.5,77.1c15.8,77.1,5.3,119.3-49.6,119.3s-72.6,2.6-97.6-2.3Z"/>
    <path class="st0" d="M273.9,504.6s68.6-1.1,79.2-6.3c10.6-5.3,26.4-43.3,19-52.8-7.4-9.5-21.1,1.1-31.7-3.2s-37-16.9-37-16.9l-29.6,79.2Z"/>
    <path class="st3" d="M194.7,505.7s5.3-16.9-22.2-28.5c-27.5-11.6-34.8-20.1-33.8-29.6,0,0-6.3,10.6-6.3,21.1,0,0-10.6-11.6-35.9-16.9l13.7,22.2s-15.8-9.5-46.5,2.1c-16.3,6.2-27.5,16.9-46.5,26.4,0,0,70.7,9.5,102.4,9.5,46.5,0,49.6-1.1,75-6.3Z"/>
    <path class="st0" d="M347.9,259s11.1-7.4,22.2-14.3c4.7-2.9,5.7-8.2,5.3-13.2-.9-4.1-1.8-7.9-3-11.5-.4-1-.7-1.6-.7-1.6l.2.2c-8.6-25.9-25-39.7-56.7-37.2-39.6,3.2-101.4,33.3-101.4,33.3-7.9-6.3-22.2-22.2-33.3-11.1-11.1,11.1,19.2,39.4,17.4,57-3.2,31.7-53.9,177.4-53.9,177.4l91.9-52.3s30.1,31.7,34.8,33.3c4.8,1.6,34.8-23.8,39.6-72.9,3.5-36.6,42.2-55.6,59.1-79.3-11.1.9-21.6-7.9-21.6-7.9Z"/>
    <path class="st5" d="M370,244.8c4.7-2.9,5.7-8.1,5.3-13.2,0-.3-.1-.5-.2-.8-.3-1.4-.6-2.7-.9-4-.2-1-.5-1.9-.8-2.8-.3-1.1-.6-2.1-.9-3.2-.1-.4-.3-.8-.4-1.2-.3-.8-.3-1.1-.3-1.1,0-.3-.9-2.5-1.2-3.4-.4-1-.8-2-1.2-3-.3-.7-.6-1.4-.9-2.1-.5-1-1-2.1-1.5-3.1-.3-.5-.6-1.1-.9-1.6-.6-1.1-1.2-2.1-1.8-3.1-.2-.3-.5-.7-.7-1-5.3-7.9-12.2-13.6-21.2-16.9,0,0,0,0-.1,0-1.5-.5-3-1-4.6-1.4-.1,0-.2,0-.3,0-1.6-.4-3.3-.7-5-1,0,0-.2,0-.3,0-1.8-.3-3.6-.4-5.5-.6,11.7,8.7,35.1,29.1,36.1,68,2.3-1.5,4.8-3,7.2-4.5Z"/>
    <path class="st3" d="M213.7,214.7s-4.8-30.1,17.4-53.9l4.8,25.3s30.1-41.2,85.5-19l-40.1,25,23,.8s-24.1,15.7-34.1,41.2c-42.8,109.3-50.2,153.2-96.1,159.5l15.8-42.8-22.2-3.2s30.1-31.7,31.7-49.1l-38-14.3s44.4-45.9,52.3-69.7Z"/>
    <path class="st5" d="M258.1,247.7s0-40.1,13.8-42.6c13.8-2.5,22.5,15,17.5,38.8-5,23.8-27.6,13.8-31.3,3.8Z"/>
    <path class="st3" d="M326.6,212.4c2.9,7.2,1.2,14.6-3.8,16.6-5,2-11.4-2.2-14.3-9.3-2.9-7.2-1.2-14.6,3.8-16.6,5-2,11.4,2.2,14.3,9.3Z"/>
    <path class="st5" d="M319.5,435.4c-.2-4.8-.6-9.9-1.2-15.2l-41.8-3.2,43,18.4Z"/>
  </g>
  <polygon class="st1" points="209.9 82.6 212.7 81.1 212.2 84.3 214.4 86.5 211.3 87 209.9 89.8 208.5 87 205.3 86.5 207.6 84.3 207.1 81.1 209.9 82.6"/>
  <polygon class="st1" points="343.2 68.4 351.6 64 350 73.4 356.8 80 347.4 81.4 343.2 89.9 339 81.4 329.6 80 336.4 73.4 334.8 64 343.2 68.4"/>
  <polygon class="st1" points="373.7 320.8 377.3 319 376.6 322.9 379.4 325.7 375.5 326.2 373.7 329.8 372 326.2 368 325.7 370.9 322.9 370.2 319 373.7 320.8"/>
  <polygon class="st1" points="425.3 144.1 429.4 141.9 428.6 146.6 432 149.9 427.3 150.6 425.3 154.8 423.2 150.6 418.5 149.9 421.9 146.6 421.1 141.9 425.3 144.1"/>
  <polygon class="st1" points="437.1 227.8 441.2 225.6 440.4 230.3 443.8 233.6 439.2 234.2 437.1 238.5 435 234.2 430.3 233.6 433.7 230.3 432.9 225.6 437.1 227.8"/>
  <path class="st1" d="M409.6,142.4s-19-14.8-66.5-3.2c0,0,35.9-18,66.5,3.2Z"/>
</svg>