<?xml version="1.0" encoding="UTF-8"?>
<svg id="Layer_1" xmlns="http://www.w3.org/2000/svg" version="1.1" viewBox="0 0 512 512">
  <!-- Generator: Adobe Illustrator 29.3.1, SVG Export Plug-In . SVG Version: 2.1.0 Build 151)  -->
  <defs>
    <style>
      .st0 {
        fill: #f9e8f8;
      }

      .st1 {
        fill: #fff;
      }

      .st2 {
        fill: #69b1de;
      }

      .st3 {
        fill: #4b25c2;
      }

      .st4 {
        fill: #b897c9;
      }

      .st5 {
        fill: #c74fb7;
      }

      .st6 {
        fill: #d2bade;
      }
    </style>
  </defs>
  <path class="st2" d="M303.8,29.7l33.2,67.3c7.8,15.7,22.8,26.6,40.1,29.2l74.3,10.8c43.7,6.4,61.2,60.1,29.5,90.9l-53.8,52.4c-12.6,12.2-18.3,29.9-15.3,47.2l12.7,74c7.5,43.6-38.2,76.8-77.4,56.2l-66.4-34.9c-15.5-8.2-34.1-8.2-49.6,0l-66.4,34.9c-39.1,20.6-84.8-12.6-77.4-56.2l12.7-74c3-17.3-2.8-34.9-15.3-47.2l-53.8-52.4c-31.6-30.8-14.2-84.6,29.5-90.9l74.3-10.8c17.4-2.5,32.4-13.4,40.1-29.2l33.2-67.3c19.6-39.6,76.1-39.6,95.6,0Z"/>
  <g>
    <g>
      <path class="st3" d="M338.6,355.9s41.4,11.8,47.3,68.6l-13-9.5s10.6,80.4-55.6,97l13-33.1s-23.6,37.8-80.4,23.6l27.2-16.6s-40.1,19.6-68.5-25.3c0,0,33-13.7,57.9-33.8,24.8-20.1,43.8-74.5,72.1-70.9Z"/>
      <path class="st0" d="M274.5,179.9s40.6-8.1,52.3-12.8c11.6-4.6,17.4-27.9,32.5-11.6,15.1,16.3,23.2,38.3,12.8,47.6-10.5,9.3-47.9,32.4-47.9,32.4,0,0,28.6,36.2,47.6,61.9,9.6,13,44,21.4,54.3,22.9,13.3,1.9,12.4,3.8,7.2,28.2-4.6,21.6-20.9,22.1-38.3,23.2-17.4,1.2-52.3-1.2-56.9,0-4.6,1.2-27.9,20.9-27.9,20.9,0,0-5.8,60.4-18.6,63.9-12.8,3.5-44.1,3.5-43-3.5,1.2-7,5.8-22.1,3.5-27.9-2.3-5.8-5.2-38.2-5.2-38.2l-42.2-73.6s-44.1,32.5-53.4,29c-9.3-3.5-25.5-33.7-19.7-38.3,5.8-4.6,32.5-29,38.3-38.3,5.8-9.3,32.5-44.1,32.5-44.1l72-41.8Z"/>
      <g>
        <g>
          <path class="st0" d="M219.9,209.1l.4.6c-.7-.3-.4-.6-.4-.6Z"/>
          <path class="st0" d="M225.4,206.5l-.4-.6s.4-.1.4.6Z"/>
        </g>
        <path class="st0" d="M270.9,285.1c-65.8,42.2-135.3-47.7-163.4-92.7-4.5-7.2-7.9-10.4-10.4-10.7-35-36.9-44.7-59.7-26.9-70.8,19.4-12.1,43.3,23.9,43.3,23.9l86.2-53.8c-6.3-12.5-15.3-53.3,11.9-55.3,27.2-2,48.3,70.2,48.3,70.2,0,0,88.8,139.4,11,189.3Z"/>
        <path class="st5" d="M245.1,88.9s-20.6-9.6-36.2-2.1c0,0-15.6-43,2-47.3,17.6-4.2,32,44.1,32,44.1"/>
        <path class="st5" d="M104.6,176.6s.4-22.7,14-33.4c0,0-31.8-33-43.3-19-11.5,13.9,25.5,48.1,25.5,48.1"/>
      </g>
      <path class="st3" d="M112.5,139.4s9.5-38.1,36.5-54.6c33.5-20.5,47-15.2,66.7-18.4l-7.6,12.7,39.4,7-34.3,18.4s11.4,50.8-22.2,101.6l-18.4-37.5s0,51.5-24.8,92.7c0,0-53.4-47.7-35.3-122Z"/>
    </g>
    <path class="st3" d="M236.3,195.3c-1.8,0-3.6-.9-4.7-2.4-1.3-1.8-1.4-4.2-.3-6.1l18.6-32.3c1.6-2.7,5.1-3.7,7.8-2.1,2.7,1.6,3.7,5.1,2.1,7.8l-12.5,21.6,22.9-4.1c3.1-.6,6.1,1.5,6.6,4.6.6,3.1-1.5,6.1-4.6,6.6l-35,6.3c-.3,0-.7,0-1,0Z"/>
    <path class="st3" d="M179.5,248.2c-1.2,0-2.5-.4-3.5-1.2-2.5-1.9-2.9-5.5-1-8l14.3-18.4-24.9,1c-3.1.1-5.8-2.3-5.9-5.5-.1-3.2,2.3-5.8,5.5-5.9l37.2-1.5c2.2,0,4.3,1.1,5.3,3.1,1,2,.8,4.4-.6,6.1l-21.8,28.1c-1.1,1.4-2.8,2.2-4.5,2.2Z"/>
    <path class="st5" d="M233.7,227c-35.4,22.1-40.5,46.5-41.1,56.4,24.7,14.3,51.8,18.7,78.3,1.7,25.6-16.4,33.2-42.6,31.8-70.3-13.7-4-38.8-6.7-69,12.1Z"/>
  </g>
  <polygon class="st1" points="291.5 74.4 299.8 70.1 298.2 79.2 304.8 85.7 295.7 87 291.5 95.3 287.4 87 278.3 85.7 284.9 79.2 283.3 70.1 291.5 74.4"/>
  <polygon class="st1" points="177.1 391.6 185.3 387.3 183.7 396.4 190.4 402.9 181.2 404.2 177.1 412.6 173 404.2 163.8 402.9 170.4 396.4 168.9 387.3 177.1 391.6"/>
  <polygon class="st1" points="398.6 230.8 401.8 229.1 401.2 232.7 403.8 235.3 400.2 235.8 398.6 239.1 397 235.8 393.4 235.3 396 232.7 395.3 229.1 398.6 230.8"/>
  <polygon class="st1" points="414.7 179 417.9 177.3 417.3 180.9 419.9 183.5 416.3 184 414.7 187.2 413.1 184 409.5 183.5 412.1 180.9 411.5 177.3 414.7 179"/>
  <g>
    <path class="st6" d="M194.6,106.9L113.3,26c-2.4-2.4-6.2-2.9-9.1-1h0c-3,1.9-4.3,5.7-2.9,9l42.7,105.8s10.6,12.8,34.8-2.3c24.2-15.1,15.8-30.6,15.8-30.6Z"/>
    <path class="st4" d="M146.4,130.3c-5.9,0-10.2-1.3-10.5-1.4-2.5-.8-3.8-3.4-3-5.9.8-2.5,3.4-3.8,5.8-3h0c.1,0,11.1,3.3,20.6-2.3,7-4.1,11.7-12.1,14.1-23.7.5-2.5,3-4.2,5.5-3.6,2.5.5,4.2,3,3.6,5.5-2.9,14.4-9.2,24.4-18.6,30-6.1,3.6-12.4,4.6-17.5,4.6Z"/>
    <path class="st4" d="M128.2,95.3c-2.5,0-4.1-.2-4.3-.2-2.6-.3-4.3-2.7-4-5.3.3-2.6,2.7-4.4,5.2-4,.3,0,11.4,1.4,18.4-4.4,3.6-3,5.5-7.3,5.9-13.3.2-2.6,2.4-4.5,4.9-4.4,2.6.2,4.5,2.4,4.4,4.9-.5,8.6-3.7,15.3-9.3,20-7,5.7-16,6.7-21.2,6.7Z"/>
    <path class="st4" d="M113.5,59.2c-1.5,0-2.6-.1-2.9-.2-2.6-.3-4.3-2.7-4-5.3.3-2.6,2.7-4.3,5.2-4,1.7.2,6.7.2,9.7-2.3,1.8-1.5,2.7-3.7,2.9-6.7.2-2.6,2.4-4.5,4.9-4.4,2.6.2,4.5,2.4,4.4,4.9-.3,5.7-2.5,10.3-6.3,13.4-4.6,3.8-10.5,4.5-13.9,4.5Z"/>
  </g>
</svg>