<?xml version="1.0" encoding="UTF-8"?>
<svg id="Layer_1" xmlns="http://www.w3.org/2000/svg" version="1.1" viewBox="0 0 512 512">
  <!-- Generator: Adobe Illustrator 29.3.1, SVG Export Plug-In . SVG Version: 2.1.0 Build 151)  -->
  <defs>
    <style>
      .st0 {
        fill: #fff;
      }

      .st1 {
        fill: #ff5120;
      }

      .st2 {
        fill: #ea461f;
      }

      .st3 {
        fill: #ff9124;
      }

      .st4 {
        fill: #d60026;
      }

      .st5 {
        fill: #ff092a;
      }

      .st6 {
        fill: #ff8327;
      }

      .st7 {
        fill: #bf3616;
      }

      .st8 {
        fill: #f3833a;
      }

      .st9 {
        fill: #ffd1ae;
      }

      .st10 {
        fill: #f97228;
      }

      .st11 {
        fill: #1b020a;
      }

      .st12 {
        fill: #fff0f1;
      }

      .st13 {
        opacity: 0;
      }

      .st14 {
        fill: #ffa451;
      }
    </style>
  </defs>
  <path class="st6" d="M311.7,385.8c-1.7,1.8-4.4,1.9-6.9,1.9-13.3,0-26.6-.2-39.9-.2-3.1,0-6.2,0-9.4,0-1.2,0-2.3,0-3.5,0s-1,0-1.4,0c-4.3-.1-9-1-10.8-4.8-.1-.3-.2-.5-.3-.8-.2-.7-.3-1.3-.3-2,0-2.6,1.5-5.2,3.7-6.8.9-.7,1.9-1.2,3-1.6,2.3-.9,4.9-1.2,7.4-1.2,3.6,0,7.3.2,10.9-.4-1.9-5-3.1-10.2-3.7-15.5-.7-5.6-.5-11.2.4-16.7.9-5.7,2.8-11.5,6.7-15.8,4.7-5.1,11.9-7.4,18.8-6.9,6.4.4,11.8,3.3,17.6,5.7,5.6,2.3,6.3,7.1,6.6,12.9.9,15,1.8,29.9,2.7,44.9,0,.1,0,.3,0,.4.1,2.5.2,5.3-1.5,7Z"/>
  <path class="st5" d="M408.8,296.4c0,8-6.5,14.5-14.5,14.5s-14.5-6.5-14.5-14.5,6.5-14.5,14.5-14.5,14.5,6.5,14.5,14.5Z"/>
  <path class="st5" d="M383.1,289.3c0,8-6.5,14.5-14.5,14.5s-14.5-6.5-14.5-14.5,6.5-14.5,14.5-14.5,14.5,6.5,14.5,14.5Z"/>
  <path class="st5" d="M432.7,312.7c0,8-6.5,14.5-14.5,14.5s-14.5-6.5-14.5-14.5,6.5-14.5,14.5-14.5,14.5,6.5,14.5,14.5Z"/>
  <path class="st5" d="M458,327.2c0,8-6.5,14.5-14.5,14.5s-14.5-6.5-14.5-14.5,6.5-14.5,14.5-14.5,14.5,6.5,14.5,14.5Z"/>
  <path class="st5" d="M488.3,327.2c0,8-6.5,14.5-14.5,14.5s-14.5-6.5-14.5-14.5,6.5-14.5,14.5-14.5,14.5,6.5,14.5,14.5Z"/>
  <path class="st5" d="M508.7,290.1c-2.7,3.2-6.7,5.2-11.1,5.2s-2.8-.2-4.1-.6c-6-1.8-10.4-7.3-10.4-13.9s4.1-11.8,9.8-13.7c0,0,0,0,.1,0,7.1,6.2,12.5,14.2,15.7,23Z"/>
  <circle class="st5" cx="496.4" cy="309" r="14.5"/>
  <path class="st1" d="M256.2,384.3c0,1.1-.2,2.1-.6,3.1-1.2,0-2.3,0-3.5,0s-1,0-1.4,0c-4.3-.1-9-1-10.8-4.8-.1-.3-.2-.5-.3-.8,1.1-3.5,4.3-6,8.1-6s8.5,3.8,8.5,8.5Z"/>
  <path class="st6" d="M415.2,385.8c-1.7,1.8-4.4,1.9-6.9,1.9-13.3,0-26.6-.2-39.9-.2-3.1,0-6.2,0-9.4,0-1.2,0-2.3,0-3.5,0s-1,0-1.4,0c-4.3-.1-9-1-10.8-4.8-.1-.3-.2-.5-.3-.8-.2-.7-.3-1.3-.3-2,0-2.6,1.5-5.2,3.7-6.8.9-.7,1.9-1.2,3-1.6,2.3-.9,4.9-1.2,7.4-1.2,3.6,0,7.3.2,10.9-.4-1.9-5-3.1-10.2-3.7-15.5-.7-5.6-.5-11.2.4-16.7.9-5.7,2.8-11.5,6.7-15.8,4.7-5.1,11.9-7.4,18.8-6.9,6.4.4,11.8,3.3,17.6,5.7,5.6,2.3,6.3,7.1,6.6,12.9.9,15,1.8,29.9,2.7,44.9,0,.1,0,.3,0,.4.1,2.5.2,5.3-1.5,7Z"/>
  <path class="st1" d="M359.7,384.3c0,1.1-.2,2.1-.6,3.1-1.2,0-2.3,0-3.5,0s-1,0-1.4,0c-4.3-.1-9-1-10.8-4.8-.1-.3-.2-.5-.3-.8,1.1-3.5,4.3-6,8.1-6s8.5,3.8,8.5,8.5Z"/>
  <path class="st4" d="M111.5,277.4c-13.8-1.5-27.7-4.2-41.4-2.4-13.6,1.8-24,9.7-35,18.1-4,3.1-15.3,7.5-11.5,11.2s-3.7,5-3.1,6.6c1.3,3.5,5.6-.6,7.3,1.8,1.2,1.6-.7,3.7-2.4,4.7-1.7,1-3.8,2.7-3,4.6.7.8,1.4,1.5,2.1,2.3-5.5,1.9-10.9,3.7-16.4,5.6-2,.7-4.1,1.4-5.7,2.8-1.6,1.4-2.8,3.6-2.2,5.6.6,2.7,3.9.1,6.7,0,2.7-.1,5,2.6,7.6,1.6,2.6-1,5.4-1.7,8-.7.7.9,0,2.2-.9,2.8-.9.6-2.1,1-2.8,1.9-1.2,1.6,0,4.1,1.9,4.8,1.8.8,3.9.5,5.9.3,7.9-.8,21-5.1,14.9,4.8-2.5,4,18.1-.8,22.7,0,12.5,2.1,26.7,1.8,36.3-6.5,9.8-8.4,12-22.6,19.1-33.4,7.8-11.9,20.5-19.1,29.8-29.6,1.6-1.8,10.1-11.8,7.2-13.8-2-1.4-12.2,5.1-14.4,5.8-9.7,2.8-20.6,2.1-30.6,1Z"/>
  <path class="st14" d="M511.9,313.2c-1.3,17.2-11.3,33.6-26,42.7-18.8,11.7-42,13.8-63.8,15.1-3,.2-5.9.4-8.7.6-8,.5-23.5,1-41.2,1.3-16.7.4-35.4.6-51.3.8-14,.2-25.9.2-32.5.2s-10-.4-15.3-1.3c-6.6-1.1-13.3-3-19.6-5.9-10.2-4.7-19.1-11.9-23.9-22.3-4.2-9.1-3.6-20.1-2.4-29.9,1.1-8.5,2.6-17,5.3-25.2.4-1.2.8-2.3,1.2-3.4.3-.9.7-1.8,1-2.6,0-.1.1-.2.1-.3.3-.7.6-1.5.9-2.2,2.9-6.6,6.9-12.9,11.7-18.4,4.7-5.4,10.4-9.9,16.9-13,3-1.4,6.8-2.4,9.2-.2.7.7,1.2,1.5,1.5,2.4.3.7.5,1.4.7,2,.6,1.7,1.4,3.3,2.3,4.9,3.3,5.6,8.6,10,14.6,13.3,3.9,2.1,8,3.7,12.2,4.9,28.6,8.2,60.9,1.7,87.6,14.9,14,6.9,25,18.6,38.1,27.3,13,8.6,30.3,14.1,44.1,6.8,9.7-5.1,15.7-15.5,18-26.2.3-1.6.6-3.2.8-4.8,1.2-9.1.4-18.4-.6-27.6,0,0,0-.1,0-.2,0,0,.1.1.2.2,7.1,6.2,12.5,14.2,15.7,23,2.7,7.4,3.8,15.3,3.2,23.1Z"/>
  <path class="st12" d="M274.2,354.1l-1,18.6c-6.6-1.1-13.3-3-19.6-5.9-10.2-4.7-19.1-11.9-23.9-22.3-4.2-9.1-3.6-20.1-2.4-29.9,1.2-9.7,3.1-19.4,6.5-28.6.3-.9.7-1.8,1-2.6,0-.1.1-.2.1-.3-7.1,2.3-14.6,3.6-22.1,3.7l1.3-14.2,34.5-17s-.5,2.6-1,6.9c-.5,4-1,9.5-1.2,15.9-.8,21.8,2,53.9,21.9,71.4,1.8,1.6,3.8,3.1,6,4.5Z"/>
  <path class="st13" d="M315.1,371c-3,.2-5.9.4-8.7.6-8,.5-23.5,1-41.2,1.3-2.4-8.6-2.9-17.8-1.5-26.7.9-5.7,2.8-11.5,6.7-15.8,4.7-5.1,11.9-7.4,18.8-6.9,6.4.4,11.8,3.3,17.6,5.7,5.6,2.4,6.3,7.1,6.6,12.9.6,9.6,1.1,19.2,1.7,28.8Z"/>
  <path class="st14" d="M319.4,394.6c-1.7,1.8-4.4,1.9-6.9,1.9-13.3,0-26.6-.2-39.9-.2-3.1,0-6.2,0-9.4,0-1.2,0-2.3,0-3.5,0s-1,0-1.4,0c-4.3-.1-9-1-10.8-4.8-.1-.3-.2-.5-.3-.8-.2-.7-.3-1.3-.3-2,0-2.6,1.5-5.2,3.7-6.8.9-.7,1.9-1.2,3-1.6,2.3-.9,4.9-1.2,7.4-1.2,3.6,0,7.3.2,10.9-.4-1.9-5-3.1-10.2-3.7-15.5-.7-5.6-.5-11.2.4-16.7.9-5.7,2.8-11.5,6.7-15.8,4.7-5.1,11.9-7.4,18.8-6.9,6.4.4,11.8,3.3,17.6,5.7,5.6,2.3,6.3,7.1,6.6,12.9.9,15,1.8,29.9,2.7,44.9,0,.1,0,.3,0,.4.1,2.5.2,5.3-1.5,7Z"/>
  <path class="st13" d="M422.1,371c-3,.2-5.9.4-8.7.6-8,.5-23.5,1-41.2,1.3-2.4-8.6-2.9-17.8-1.5-26.7.9-5.7,2.8-11.5,6.7-15.8,4.7-5.1,11.9-7.4,18.8-6.9,6.4.4,11.8,3.3,17.6,5.7,5.6,2.4,6.3,7.1,6.6,12.9.6,9.6,1.1,19.2,1.7,28.8Z"/>
  <path class="st14" d="M427.4,394.6c-1.7,1.8-4.4,1.9-6.9,1.9-17.6-.1-35.1-.2-52.7-.3-.3,0-.7,0-1,0-.2,0-.5,0-.7,0-.3,0-.6,0-.8,0-.1,0-.2,0-.3,0-3.9-.3-7.8-1.3-9.4-4.7-.2-.4-.3-.8-.4-1.3-.7-3,.9-6.4,3.5-8.4,2.9-2.2,6.7-2.8,10.4-2.9,3.6-.1,7.3.2,10.9-.4-3.9-10.2-5.1-21.5-3.3-32.3.9-5.7,2.8-11.5,6.7-15.8,4.7-5.1,11.9-7.4,18.8-6.9,6.4.4,11.8,3.3,17.6,5.7,5.6,2.3,6.3,7.1,6.6,12.9.9,15.1,1.8,30.2,2.7,45.4.1,2.5.2,5.3-1.5,7Z"/>
  <g>
    <path class="st14" d="M228.4,316.8c2.7,1.3,7.2,0,10.1,0,3.3-.6,7-.1,9.7-2.5-1.4,3.6-6.1,4-9.4,4.5-3.4.2-7.8.9-10.3-2h0Z"/>
    <path class="st14" d="M228.4,335.1c8.7,4.2,18.5,2.2,25.2-4.7-4.3,9.2-17.9,11.8-25.2,4.7h0Z"/>
    <path class="st14" d="M238.4,355.5c10.4,2.4,19.9-1.3,26-10.1-3.2,10.6-16.5,15.8-26,10.1h0Z"/>
  </g>
  <path class="st13" d="M278.1,258.5c-6.7,10-16,18.4-27.3,24.2-1.3.7-2.5,1.3-3.9,1.9-2.4,1.1-5,2-7.5,2.9-2.3.7-4.5,1.3-6.8,1.9.4-1.2.8-2.3,1.2-3.4.3-.9.7-1.8,1-2.6,0-.1.1-.2.1-.3.3-.7.6-1.5.9-2.2,2.9-6.6,6.9-12.9,11.7-18.4,4.7-5.4,10.4-9.9,16.9-13,3-1.4,6.8-2.4,9.2-.2.7.7,1.2,1.5,1.5,2.4.3.7.5,1.4.7,2,.6,1.7,1.4,3.3,2.3,4.9Z"/>
  <g>
    <path class="st8" d="M327.4,291.7c0,.4-.3.7-.7.7s-.7-.3-.7-.7.3-.7.7-.7.7.3.7.7Z"/>
    <path class="st8" d="M388.1,299.8c0,.4-.3.7-.7.7s-.7-.3-.7-.7.3-.7.7-.7.7.3.7.7Z"/>
    <path class="st8" d="M319.8,289.3c0,1.7-1.4,3.1-3.1,3.1s-3.1-1.4-3.1-3.1,1.4-3.1,3.1-3.1,3.1,1.4,3.1,3.1Z"/>
    <path class="st8" d="M379.8,298.2c0,1.7-1.4,3.1-3.1,3.1s-3.1-1.4-3.1-3.1,1.4-3.1,3.1-3.1,3.1,1.4,3.1,3.1Z"/>
    <path class="st8" d="M330.5,288.7c0,.9-.7,1.6-1.6,1.6s-1.6-.7-1.6-1.6.7-1.6,1.6-1.6,1.6.7,1.6,1.6Z"/>
    <circle class="st8" cx="332.9" cy="294" r="1.6"/>
    <path class="st8" d="M383.9,299.8c0,.9-.7,1.6-1.6,1.6s-1.6-.7-1.6-1.6.7-1.6,1.6-1.6,1.6.7,1.6,1.6Z"/>
    <path class="st8" d="M337.2,291.1c0,.4-.6.8-1.4.8s-1.4-.3-1.4-.8.6-.8,1.4-.8,1.4.3,1.4.8Z"/>
    <path class="st8" d="M388.1,303.6c0,.4-.6.8-1.4.8s-1.4-.3-1.4-.8.6-.8,1.4-.8,1.4.3,1.4.8Z"/>
    <path class="st8" d="M324.4,290.1c0,.4-.6.8-1.4.8s-1.4-.3-1.4-.8.6-.8,1.4-.8,1.4.3,1.4.8Z"/>
    <path class="st8" d="M382.1,303.6c0,.4-.6.8-1.4.8s-1.4-.3-1.4-.8.6-.8,1.4-.8,1.4.3,1.4.8Z"/>
    <path class="st8" d="M323.1,294c0,.4-.6.8-1.4.8s-1.4-.3-1.4-.8.6-.8,1.4-.8,1.4.3,1.4.8Z"/>
  </g>
  <g>
    <circle class="st5" cx="165.5" cy="157.9" r="14"/>
    <circle class="st5" cx="148.1" cy="180.4" r="14"/>
    <path class="st1" d="M239.6,115.6s0,.1-.2.3c-1,2.1-6.6,14-7.7,32.3h-33.9s6.4-34.9,41.8-32.6Z"/>
    <path class="st2" d="M239.5,115.9c-1,2.1-6.6,14-7.7,32.3h-16.8c5.8-24.2,19.7-30.7,24.5-32.3Z"/>
    <circle class="st5" cx="143" cy="208.4" r="14"/>
    <path class="st14" d="M275.1,251.6c-6.8,11-16.6,20.3-28.8,26.6-1.3.7-2.5,1.3-3.9,1.9-2.4,1.1-5,2-7.5,2.9-7.1,2.3-14.6,3.6-22.1,3.7-2.6,0-5.3,0-7.9-.2-14.7-1.2-29-5.5-42.6-11-.6-.3-.8-1.1-.3-1.6,3-2.4,5.5-8.5,4.1-12-1.5-3.5-6.9-2.8-10.7-2-4.4.9-6.5,3.6-8,7-.6,1.3-2,1.9-3.3,1.4-9.1-3.7-18.6-10.4-22.3-19.1-.3-.8,4-4.6,4.5-5.1,6.1-6.4,11.3-12.7,13.8-21.5,2.8-9.8,3-20,5-30,4.3-21.4,20.8-37.2,40.9-44.5,32.7-11.8,70.2-1.8,89.4,28.2,15.4,24.1,13.7,53.1-.1,75.3Z"/>
    <ellipse class="st12" cx="192.7" cy="232.5" rx="18.1" ry="22.1"/>
    <ellipse class="st11" cx="190.5" cy="237.2" rx="14.3" ry="17.4"/>
    <path class="st0" d="M194.4,237.2c0,3.8-2.6,7-5.7,7s-5.7-3.1-5.7-7,2.6-7,5.7-7,5.7,3.1,5.7,7Z"/>
    <path class="st1" d="M306.9,146.4s-.2.2-.6.5c-3.6,3.1-23,20.1-32,37.2,0,0-6.9,2-16.2-2.5-.8-.4-1.6-.8-2.4-1.3-7.1-4.2-9.9-11.3-9.9-11.3,0,0,16.8-40.5,61.1-22.7Z"/>
    <path class="st14" d="M257.1,153.8c-.1-2.1.2-4.2,1-6.2.5-1.2,1-2.9,0-3.6-.8-.5-1.8-.1-2.7.3-3.4,1.7-6.9,3.5-10.3,5.2-2,.5-1.5-1.8-1.3-3,.2-1.2.9-2.2,1.4-3.2.4-1.1.6-2.4-.2-3.4-.6-.7-1.6-1-2.6-.8-.9.1-1.8.6-2.6,1.1,0,0-6.9,3.1-8.9,7.2l20.2,12.2,5.9-5.9Z"/>
    <path class="st14" d="M276.3,246.5s22.4-6.4,34.4-34.1c0,0-16.8,6.9-28,9.9,0,0,21.4-14.5,24.2-24.7,0,0-15.8,6.4-25.5,6.1,0,0-5.1,36.4-5.1,42.8Z"/>
    <path class="st10" d="M236.7,248.2c1.3,4.7-4.4,10.3-12.7,12.5-8.3,2.2-16.1.2-17.3-4.4-1.3-4.7,4.4-10.3,12.7-12.5,8.3-2.2,16.1-.2,17.3,4.4Z"/>
    <path class="st2" d="M306.3,146.9c-3.6,3.1-23,20.1-32,37.2,0,0-6.9,2-16.2-2.5,19.6-29.8,39.6-34.3,48.2-34.7Z"/>
    <g>
      <path class="st7" d="M252.3,165.3c1.3,2.8,3.7,4.6,5.9,6.6,2.3,2,4.6,3.8,7,5.7-5.3-.6-13.1-6.6-12.9-12.3h0Z"/>
      <path class="st7" d="M259.7,158.3c2.8,2.1,5.2,5,7.8,7.3.9.8,1.8,1.5,2.8,2.3-1.3,0-2.5-.4-3.7-1-3.4-1.8-5.7-5-6.9-8.6h0Z"/>
      <path class="st7" d="M268.3,151.8c2.7,2.7,4.9,5.5,6.9,8.8-3.8-1.1-6.7-4.9-6.9-8.8h0Z"/>
      <path class="st7" d="M277.1,147.4c1.9,2.9,4.3,5.1,5.5,8.5-3-1.2-6.5-5.1-5.5-8.5h0Z"/>
      <path class="st7" d="M287.7,145.5c1.7,1.4,2.5,3.1,2.6,5.2-2.3-.4-3.7-3.2-2.6-5.2h0Z"/>
    </g>
    <g>
      <path class="st7" d="M203.6,137.8c3.3,1.2,6.4,3.4,9.5,4.8,1,.5,2.1.9,3.3,1.4-1.2.4-2.6.3-3.8.1-3.7-.8-6.9-3.2-9-6.4h0Z"/>
      <path class="st7" d="M210.1,129.1c3.4,1.8,6.3,3.9,9.1,6.5-4,0-7.8-2.8-9.1-6.5h0Z"/>
      <path class="st7" d="M217.3,122.4c2.6,2.3,5.6,3.7,7.6,6.6-3.2-.3-7.6-3.1-7.6-6.6h0Z"/>
      <path class="st7" d="M227,117.6c2,.8,3.3,2.2,4,4.3-2.3.3-4.4-2-4-4.3h0Z"/>
    </g>
    <path class="st7" d="M220.9,250.6c-.4,1.9-.8,3.8-1.4,5.6s-.2.9.2.9.6-.7.7-1.1c.6-1.8,1.1-3.7,1.4-5.6s.2-.9-.2-.9-.7.7-.7,1.1h0Z"/>
    <path class="st7" d="M224.7,251.4c-1.1,2.5-1.9,5.2-2.5,7.9s0,.3,0,.3.2-.2.2-.2c.3-.4.4-.9.5-1.3.4-2.1,1.1-4.1,1.9-6s.2-.5.3-.7.1-.4,0-.5c-.1-.2-.5.5-.5.6h0Z"/>
    <path class="st8" d="M139.8,237.8c0,.4-.3.7-.7.7s-.7-.3-.7-.7.3-.7.7-.7.7.3.7.7Z"/>
    <path class="st8" d="M225.5,240.7c0,.4-.3.7-.7.7s-.7-.3-.7-.7.3-.7.7-.7.7.3.7.7Z"/>
    <path class="st8" d="M136.2,238.5c0,.4-.3.7-.7.7s-.7-.3-.7-.7.3-.7.7-.7.7.3.7.7Z"/>
    <path class="st8" d="M229.8,240.7c0,.4-.3.7-.7.7s-.7-.3-.7-.7.3-.7.7-.7.7.3.7.7Z"/>
    <path class="st8" d="M146.1,235.1c0,1.4-1.2,2.6-2.6,2.6s-2.6-1.2-2.6-2.6,1.2-2.6,2.6-2.6,2.6,1.2,2.6,2.6Z"/>
    <path class="st8" d="M223,239.2c0,1.2-1,2.3-2.3,2.3s-2.3-1-2.3-2.3,1-2.3,2.3-2.3,2.3,1,2.3,2.3Z"/>
    <path class="st8" d="M136.8,241.4c0,.4-.6.8-1.4.8s-1.4-.3-1.4-.8.6-.8,1.4-.8,1.4.3,1.4.8Z"/>
    <path class="st8" d="M226.8,237.7c0,.4-.6.8-1.4.8s-1.4-.3-1.4-.8.6-.8,1.4-.8,1.4.3,1.4.8Z"/>
    <path class="st9" d="M168.6,163.4c3.7-2.7,7.7-4.9,11.7-7.1.7-.4,1.6-.7,2.2-.2.7.7.2,2.4-.8,2.5-5.1.7-16.5,9.2-21.9,16.4-6,8-8.4,19.6-10,28.4,0,.4-1.3-.9-1.4-1-.3-.6-.2-1.2-.1-1.8.2-1.5.4-3,.6-4.4.5-3.1,1.3-6.2,2.3-9.2,2.1-6,5.4-11.5,9.5-16.3,2.4-2.7,5-5.2,7.9-7.3Z"/>
    <path class="st9" d="M194.2,153.8c.2.9-1.8,2.3-4.6,3-2.8.7-5.2.6-5.5-.3-.2-.9,1.8-2.3,4.6-3,2.8-.7,5.2-.6,5.5.3Z"/>
  </g>
  <path class="st3" d="M84,284.1c-17.4.3-36,3.3-48.5,15.4,8.7,4.1,18.8,2.6,28.2.7,9.4-1.9,19.2-4.1,28.4-1.4-18.7,11-38.5,20-59.1,26.8-2.4.8-5.3,2.6-4.5,5,.5,1.4,2.1,2,3.5,2.4,8.4,2,17.3.6,25.2-2.8s14.9-8.6,21.4-14.3c1.7-1.5,4.2-3.2,6.1-2,2.2,1.4,1.2,5-.8,6.6s-4.8,2.1-6.8,3.8c-2,1.6-2.7,5.4-.4,6.5,1.8.9,4-.5,5-2.3s1.5-3.8,2.8-5.4c1.3-1.5,4-2.2,5.2-.6.7.9.6,2.2.4,3.4-2.2,10.9-14,18.8-24.9,16.8-1.6-.3-3.3-.8-5-.4-1.6.4-3,2.4-2.1,3.8.4.7,1.2,1.1,1.9,1.4,8.7,3.8,19.3,4.8,27.3-.3,6.6-4.3,10.3-11.8,12.9-19.3,2.6-7.4,4.6-15.3,9.2-21.6,9.1-12.6,26.4-16.8,36.6-28.5-9.9,2.2-18.9,5.4-29.1,6.1-11,.7-22,0-32.9.2Z"/>
  <path class="st1" d="M263.8,393.1c0,1.1-.2,2.1-.6,3.1-1.2,0-2.3,0-3.5,0s-1,0-1.4,0c-4.3-.1-9-1-10.8-4.8-.1-.3-.2-.5-.3-.8,1.1-3.5,4.3-6,8.1-6s8.5,3.8,8.5,8.5Z"/>
  <path class="st1" d="M371.6,393.1c0,1.1-.2,2.1-.6,3.1-1.2,0-2.3,0-3.5,0s-1,0-1.4,0c-.3,0-.6,0-.8,0-.1,0-.2,0-.3,0-3.9-.3-7.8-1.3-9.4-4.7-.2-.4-.3-.8-.4-1.3,1.2-3.3,4.3-5.5,8-5.5s8.5,3.8,8.5,8.5Z"/>
  <g>
    <path class="st5" d="M345.3,237.7c-5.2,3.6-14.8,11-14,16.6,0,.2,0,.3-.3.3-8.1,1.2-11.8,7.1-8.1,12.4.1.2,0,.5-.2.5-2.6,0-12.2.6-7.2,11.3.1.3-.1.5-.4.4-3.2-1.5-14.9-6.3-18.4.8-.1.3-.6.2-.6-.2.6-7.1,2.9-25.9,10.8-28.5,19-6.3,32.1-11.7,38-14.2.3-.1.6.3.3.5Z"/>
    <path class="st7" d="M305.7,247.9c12.6-4.8,29.8-7.5,40.3-11.3.3-.1.5.3.2.4-5,3-18,10.1-36.4,15.5-7.5,2.2-9.5,13.6-13.2,27.9,0,.3-.5.2-.5,0,.3-7.2,1.9-29.6,9.6-32.5Z"/>
    <g>
      <path class="st7" d="M331.6,254.5l-15.7-2.2c5.3-1,10.8-.2,15.7,2.2Z"/>
      <path class="st7" d="M323.4,267.5l-15.2-8.6c6,.5,11.7,3.7,15.2,8.6Z"/>
      <path class="st7" d="M304.8,266.5c4.2,3.2,7.6,7.5,9.9,12.3l-9.9-12.3Z"/>
    </g>
  </g>
</svg>