<?xml version="1.0" encoding="UTF-8"?>
<svg id="Layer_1" xmlns="http://www.w3.org/2000/svg" version="1.1" viewBox="0 0 512 512">
  <!-- Generator: Adobe Illustrator 29.3.1, SVG Export Plug-In . SVG Version: 2.1.0 Build 151)  -->
  <defs>
    <style>
      .st0 {
        fill: #fff;
      }

      .st1 {
        fill: #ff5120;
      }

      .st2 {
        fill: #ea461f;
      }

      .st3 {
        fill: #ff092a;
      }

      .st4 {
        fill: #bf3616;
      }

      .st5 {
        fill: #f3833a;
      }

      .st6 {
        fill: #ffd1ae;
      }

      .st7 {
        fill: #f97228;
      }

      .st8 {
        fill: #1b020a;
      }

      .st9 {
        fill: #fff0f1;
      }

      .st10 {
        opacity: 0;
      }

      .st11 {
        fill: #ffa451;
      }
    </style>
  </defs>
  <g>
    <path class="st3" d="M338.7,267.7c-8.1,1-23.6,4-26.2,12.3,0,.2-.3.4-.5.3-9.9-4.5-17.7.8-16.9,10.9,0,.4-.3.7-.6.5-2.9-2-14.2-8.4-15.2,10.2,0,.5-.5.6-.7.3-2.7-4.4-12.9-20.1-21.3-12.8-.4.3-.8-.2-.6-.7,5.1-9.3,19.4-33.6,30-31.2,25.4,5.8,43.6,8.3,51.8,9.2.5,0,.5.9,0,1Z"/>
    <path class="st4" d="M287.6,251.7c17.2,3,38.3,12.3,52.6,15,.4,0,.4.8,0,.8-7.6.3-26.6.3-50.8-6.3-9.9-2.7-19.2,11.6-32.4,28.6-.3.3-.7,0-.5-.5,4.8-9.7,20.6-39.4,31.1-37.6Z"/>
    <g>
      <path class="st4" d="M312.8,280.5l-16.3-14.9c6.6,2.7,12.4,8,16.3,14.9Z"/>
      <path class="st4" d="M295.5,292.2l-11.8-23.4c6.4,5.2,10.9,14,11.8,23.4Z"/>
      <path class="st4" d="M275,276.7c2.8,7.7,4,16.1,3.5,24.5l-3.5-24.5Z"/>
    </g>
  </g>
  <g>
    <path class="st3" d="M93.4,268.4c8.1,1,23.6,4,26.2,12.3,0,.2.3.4.5.3,9.9-4.5,17.7.8,16.9,10.9,0,.4.3.7.6.5,2.9-2,14.2-8.4,15.2,10.2,0,.5.5.6.7.3,2.7-4.4,12.9-20.1,21.3-12.8.4.3.8-.2.6-.7-5.1-9.3-19.4-33.6-30-31.2-25.4,5.8-43.6,8.3-51.8,9.2-.5,0-.5.9,0,1Z"/>
    <path class="st4" d="M144.6,252.4c-17.2,3-38.3,12.3-52.6,15-.4,0-.4.8,0,.8,7.6.3,26.6.3,50.8-6.3,9.9-2.7,19.2,11.6,32.4,28.6.3.3.7,0,.5-.5-4.8-9.7-20.6-39.4-31.1-37.6Z"/>
    <g>
      <path class="st4" d="M119.3,281.2l16.3-14.9c-6.6,2.7-12.4,8-16.3,14.9Z"/>
      <path class="st4" d="M136.7,292.8l11.8-23.4c-6.4,5.2-10.9,14-11.8,23.4Z"/>
      <path class="st4" d="M157.2,277.4c-2.8,7.7-4,16.1-3.5,24.5l3.5-24.5Z"/>
    </g>
  </g>
  <path class="st3" d="M303.4,370.3c0,12.6-8.4,22.9-18.7,22.9s-18.7-10.2-18.7-22.9,8.4-22.9,18.7-22.9,18.7,10.2,18.7,22.9Z"/>
  <path class="st3" d="M336.1,391.9c0,12.6-8.4,22.9-18.7,22.9s-18.7-10.2-18.7-22.9,8.4-22.9,18.7-22.9,18.7,10.2,18.7,22.9Z"/>
  <path class="st3" d="M373.5,388.4c0,12.6-8.4,22.9-18.7,22.9s-18.7-10.2-18.7-22.9,8.4-22.9,18.7-22.9,18.7,10.2,18.7,22.9Z"/>
  <path class="st3" d="M404.2,363.1c0,12.6-8.4,22.9-18.7,22.9s-18.7-10.2-18.7-22.9,8.4-22.9,18.7-22.9,18.7,10.2,18.7,22.9Z"/>
  <path class="st3" d="M424.4,342.4c-3.4,5.7-8.9,9.4-15.1,9.4s-11.4-3.5-14.8-8.9c-2.5-3.9-3.9-8.7-3.9-14,0-12.6,8.4-22.9,18.7-22.9s3.9.4,5.8,1.1c1.8.7,3.5,1.7,5,3h0c2.7,10.5,4.1,21.3,4.4,32.2Z"/>
  <path class="st11" d="M188.9,504.4c-2.3,2.7-5.8,2.7-9,2.5-21.1-1.2-42.3-2.4-63.4-3.6-1.5,0-3.1-.2-4.6-.3-6-.3-13.2-1.6-15.6-8.4-.1-.4-.3-.8-.3-1.2-1.2-5,1.2-10.7,4.8-13.7,3.9-3.2,8.8-3.9,13.5-3.8,4.7,0,9.4.8,14.1,0-6.6-50.2,7.3-85.5,9.2-94.3,2.2-10.1,13.4,8,22.2,9.2,8.2,1.1,15.1,5.9,22.4,10.2,7,4,7.7,11.6,7.8,20.8.4,23.9.8,47.8,1.2,71.7,0,3.9,0,8.3-2.3,11Z"/>
  <path class="st11" d="M404.6,421.2c-20.5,33.5-55.7,52.6-89.8,48.8-12-1.3-24-5.3-36-4.1-3.8.4-7.5,1.2-11.2,2.3-6.4,2-12.7,4.6-19.1,6.6-27.4,8.7-57.1,5.4-82.8-9-.8-.4-1.6-.9-2.3-1.3-12.4-7.4-24.5-18.3-29.2-34.2-5.7-19.1.5-40.1,6.7-59,10.2-31.5,20.5-62.9,30.7-94.4,4.3-13.4,4.9-20.7,16.4-25.4,11.8-4.7,24.4-7.3,36.7-8.8,5.2-.6,10.7-1,15.3,1.8,6.8,4,10.1,13.5,12.8,22.1,6.7,21.1,13.3,42.3,19.9,63.4,4.9,15.6,10.1,31.7,20.1,43.1,19.3,21.9,51.2,18.8,73.5,1.5,10.9-8.4,20-19.4,28.1-31.7,7.4-11.2,14.1-23.5,20.5-35.8.9-1.7,1.8-3.4,2.6-5.1.9,2.7,1.6,5.3,2.3,8.1h0c2.7,10.5,4.1,21.3,4.4,32.2.8,28-6.1,56.3-19.8,78.7Z"/>
  <path class="st11" d="M118.9,302.9c-4.9.5-9.8.8-14.6,2.2-4.8,1.4-9.4,4-12.7,8.4s-5,10.9-3.5,16.6c1.9,7.3,8.2,11.4,14.1,13.6,15.6,5.7,32.3,3.4,48.4,0,5.8-1.3,11.9-2.9,16.1-7.8,3.3-3.8,5-9.2,6.4-14.5,2.8-10.9,4.4-22.3,4.7-33.7.1-4.8.4-12.1-4.8-8.1-4,3.1-7.6,6.7-11.8,9.4-8.4,5.4-17.5,8.9-26.7,11.1-5.2,1.3-10.4,2.1-15.7,2.7Z"/>
  <path class="st11" d="M321.9,304.1c4.6.6,9.6,1.3,12.5,5.3,2.3,3.2,2.5,7.8,1.2,11.7-1.2,3.9-3.8,7-6.5,9.8-14.2,14.1-36.4,16.9-53.1,6.7-13.1-8-22.4-23.9-24-40.6-1-10.2,2.5-14.2,10.9-10.3,8.8,4,17.8,7.6,27,10.4,10.4,3.2,21.1,5.5,31.8,6.9Z"/>
  <path class="st9" d="M267.6,468.2c-6.4,2-12.7,4.6-19.1,6.6-27.4,8.7-57.1,5.4-82.8-9-1.8-12.6,1.9-31.8,3.4-41.6,2.5-17.4,6.9-34.4,13-50.4,5.4-14.2,14.7-29.4,27.5-28.7,8.7.5,16.1,8.6,20.1,18.1,4.1,9.4,5.6,20.1,7.8,30.4,4.7,21.9,12.6,42.6,23.4,61,2.4,4.1,5,8.8,6.7,13.6Z"/>
  <path class="st11" d="M314.4,507.5c-2.1,2.9-5.7,3.1-8.8,3.2-21.2.4-42.4.8-63.5,1.2-1.5,0-3,0-4.6,0-6,.1-13.3-.6-16-7.2-.2-.4-.3-.8-.4-1.2-1.4-4.9.7-10.8,4.1-14,3.7-3.5,8.6-4.6,13.3-4.9,4.7-.3,9.4.1,14.1-1-5.3-16-13.9-64.9-15.1-90-.4-9.1,13.2,21.1,18.1,14.2,5.9-8.2,15.2-12,24.1-11.5,8.2.4,15.4,4.8,22.8,8.4,7.2,3.5,8.3,11,8.9,20.1,1.6,23.8,3.2,47.6,4.8,71.4.3,3.9.4,8.3-1.8,11.2Z"/>
  <g>
    <ellipse class="st3" cx="280.4" cy="66.9" rx="18.1" ry="22.1"/>
    <ellipse class="st3" cx="302.8" cy="102.3" rx="18.1" ry="22.1"/>
    <path class="st1" d="M184.7.2s0,.2.2.5c1.3,3.3,8.5,22.1,10,50.9h43.7S230.4-3.5,184.7.2Z"/>
    <path class="st2" d="M184.9.7c1.3,3.3,8.5,22.1,10,50.9h21.7C209,13.3,191.1,3.1,184.9.7Z"/>
    <path class="st10" d="M138.9,226.4c8.8,17.4,21.5,32.1,37.2,41.9,1.6,1,3.3,2,5,2.9,3.2,1.7,6.4,3.2,9.7,4.5,9.2,3.6,18.9,5.6,28.5,5.9,3.4,0,6.8,0,10.2-.4,19-1.9,37.5-8.7,55.1-17.4.8-.4,1-1.8.3-2.4-3.9-3.8-5.7-11.2-3.9-16.6,1.9-5.5,7.5-8.5,12.4-7.3,5.7,1.4,8.5,7.5,10.4,12.9.7,2,2.6,3,4.3,2.2,11.8-5.8,24-16.4,28.8-30.2.4-1.2-5.2-7.2-5.8-8-7.9-10.2-14.6-20.1-17.8-33.8-3.6-15.4-3.8-31.6-6.4-47.3-5.5-33.7-26.9-58.7-52.8-70.2-42.2-18.6-90.6-2.8-115.4,44.4-19.9,38-17.7,83.8.1,118.8Z"/>
    <ellipse class="st3" cx="309.4" cy="146.5" rx="18.1" ry="22.1"/>
    <path class="st11" d="M138.9,214.7c8.8,17.4,21.5,32.1,37.2,41.9,1.6,1,3.3,2,5,2.9,3.2,1.7,6.4,3.2,9.7,4.5,9.2,3.6,18.9,5.6,28.5,5.9,3.4,0,6.8,0,10.2-.4,19-1.9,37.5-8.7,55.1-17.4.8-.4,1-1.8.3-2.4-3.9-3.8-5.7-11.2-3.9-16.6,1.9-5.5,7.5-8.5,12.4-7.3,5.7,1.4,8.5,7.5,10.4,12.9.7,2,2.6,3,4.3,2.2,11.8-5.8,24-16.4,28.8-30.2.4-1.2-5.2-7.2-5.8-8-7.9-10.2-14.6-20.1-17.8-33.8-3.6-15.4-3.8-31.6-6.4-47.3-5.5-33.7-26.9-58.7-52.8-70.2-42.2-18.6-90.6-2.8-115.4,44.4-19.9,38-17.7,83.8.1,118.8Z"/>
    <ellipse class="st9" cx="245.2" cy="184.5" rx="23.3" ry="34.8"/>
    <path class="st8" d="M229.7,191.9c0,15.2,8.2,27.5,18.4,27.5s18.4-12.3,18.4-27.5-8.2-27.5-18.4-27.5-18.4,12.3-18.4,27.5Z"/>
    <path class="st0" d="M243.1,191.9c0,6.1,3.3,11,7.4,11s7.4-4.9,7.4-11-3.3-11-7.4-11-7.4,4.9-7.4,11Z"/>
    <path class="st1" d="M97.9,48.8s.3.3.8.8c4.7,4.9,29.7,31.8,41.3,58.6,0,0,8.9,3.2,20.9-3.9,1-.6,2-1.3,3.1-2,9.2-6.6,12.8-17.8,12.8-17.8,0,0-21.7-63.9-78.9-35.7Z"/>
    <path class="st11" d="M162.1,60.3c.2-3.3-.3-6.6-1.3-9.7-.6-1.9-1.3-4.5.1-5.6,1-.8,2.3-.2,3.4.5,4.4,2.7,8.9,5.5,13.3,8.2,2.6.7,2-2.9,1.7-4.7-.3-1.8-1.2-3.4-1.8-5.1-.6-1.7-.8-3.9.2-5.3.8-1.1,2.1-1.5,3.3-1.3,1.2.2,2.3,1,3.3,1.7,0,0,8.9,5,11.5,11.4l-26.1,19.2-7.7-9.3Z"/>
    <path class="st11" d="M137.3,206.6s-28.9-10-44.4-53.8c0,0,21.7,10.8,36.2,15.7,0,0-27.6-22.9-31.2-39,0,0,20.4,10,32.9,9.6,0,0,6.6,57.4,6.6,67.5Z"/>
    <path class="st7" d="M188.4,209.3c-1.6,7.4,5.7,16.2,16.5,19.8,10.7,3.5,20.7.4,22.3-7,1.6-7.4-5.7-16.2-16.5-19.8-10.7-3.5-20.7-.4-22.3,7Z"/>
    <path class="st2" d="M98.6,49.6c4.7,4.9,29.7,31.8,41.3,58.6,0,0,8.9,3.2,20.9-3.9-25.3-47.1-51.1-54.1-62.3-54.7Z"/>
    <g>
      <path class="st4" d="M168.3,78.5c.8,8.1-9.1,17.9-16.7,19.4,4.9-4.4,9.3-8.8,13.3-13.9,1.3-1.7,2.5-3.3,3.4-5.4h0Z"/>
      <path class="st4" d="M158.8,67.5c-1.6,6.7-6.3,14.2-13.7,15.1,5.3-4.5,8.5-10.4,13.7-15.1h0Z"/>
      <path class="st4" d="M147.6,57.2c0,5.8-3.5,11.6-8.9,13.9,2.4-5.1,5.2-9.6,8.9-13.9h0Z"/>
      <path class="st4" d="M136.2,50.3c1.6,4.9-2.8,11.2-7.1,13.4,1.3-5.1,4.5-8.9,7.1-13.4h0Z"/>
      <path class="st4" d="M122.6,47.3c1.5,3.1,0,7.2-3.4,8.2,0-3.2,1-6,3.4-8.2h0Z"/>
    </g>
    <g>
      <path class="st4" d="M231.1,35.1c-2.4,4.5-6.4,8.4-11.4,9.8-1.7.4-3.5.6-5.2,0,1.6-.7,3-1.4,4.4-2.2,4.1-2.3,7.9-5.7,12.2-7.7h0Z"/>
      <path class="st4" d="M222.8,21.4c-1.2,5.4-6.2,9.9-11.7,10.3,3.6-4,7.2-7.4,11.7-10.3h0Z"/>
      <path class="st4" d="M213.4,10.8c.5,5-5.3,9.7-9.9,10.5,2.5-4.4,6.4-6.9,9.9-10.5h0Z"/>
      <path class="st4" d="M201,3.3c.8,3.2-1.8,6.8-5.1,6.8.7-3,2.4-5.3,5.1-6.8h0Z"/>
    </g>
    <path class="st4" d="M207.5,214c.5,3,1.1,5.9,1.8,8.8s.8.1,1-.2c.3-.5.7-1.3.5-1.9-.8-2.9-1.4-5.8-1.8-8.8s-.8,0-1,.2c-.4.6-.6,1.3-.5,1.9h0Z"/>
    <path class="st4" d="M203.3,216.1c1.3,3.6,2.2,7.2,2.8,11s.7-.8.7-.8c.2-.5.5-1.2.4-1.7-.6-3.7-1.6-7.4-2.8-11s-.7.7-.7.8c-.2.4-.6,1.3-.4,1.7h0Z"/>
    <ellipse class="st5" cx="314.4" cy="192.9" rx=".9" ry="1.1"/>
    <path class="st5" d="M203,197.4c0,.6.4,1.1.9,1.1s.9-.5.9-1.1-.4-1.1-.9-1.1-.9.5-.9,1.1Z"/>
    <path class="st5" d="M318.2,194c0,.6.4,1.1.9,1.1s.9-.5.9-1.1-.4-1.1-.9-1.1-.9.5-.9,1.1Z"/>
    <path class="st5" d="M197.3,197.4c0,.6.4,1.1.9,1.1s.9-.5.9-1.1-.4-1.1-.9-1.1-.9.5-.9,1.1Z"/>
    <path class="st5" d="M305.4,188.6c0,2.3,1.5,4.1,3.4,4.1s3.4-1.8,3.4-4.1-1.5-4.1-3.4-4.1-3.4,1.8-3.4,4.1Z"/>
    <path class="st5" d="M206.2,195.1c0,2,1.3,3.6,2.9,3.6s2.9-1.6,2.9-3.6-1.3-3.6-2.9-3.6-2.9,1.6-2.9,3.6Z"/>
    <path class="st5" d="M317.3,198.6c0,.7.8,1.2,1.8,1.2s1.8-.5,1.8-1.2-.8-1.2-1.8-1.2-1.8.5-1.8,1.2Z"/>
    <path class="st5" d="M201.2,192.7c0,.7.8,1.2,1.8,1.2s1.8-.5,1.8-1.2-.8-1.2-1.8-1.2-1.8.5-1.8,1.2Z"/>
    <path class="st6" d="M276.3,75.5c-4.7-4.3-9.9-7.7-15-11.1-.9-.6-2.1-1.1-2.8-.3-.9,1.1-.3,3.8,1,4,6.6,1.1,21.3,14.5,28.3,25.9,7.8,12.6,10.8,30.9,12.9,44.9,0,.7,1.7-1.4,1.8-1.6.4-1,.3-1.9.2-2.9-.2-2.3-.5-4.7-.8-7-.6-5-1.6-9.8-3-14.6-2.7-9.4-6.9-18.2-12.3-25.7-3-4.3-6.4-8.2-10.2-11.5Z"/>
    <path class="st6" d="M243.3,60.4c-.3,1.4,2.3,3.6,5.9,4.8,3.6,1.2,6.7,1,7.1-.5.3-1.4-2.3-3.6-5.9-4.8-3.6-1.2-6.7-1-7.1.5Z"/>
  </g>
  <path class="st1" d="M117.2,498.6c0,1.7-.3,3.3-.7,4.8-1.5,0-3.1-.2-4.6-.3-6-.3-13.2-1.6-15.6-8.4-.1-.4-.3-.8-.3-1.2,1.6-4.9,5.5-8.4,10.2-8.4s11,6,11,13.5Z"/>
  <path class="st1" d="M242.6,507.7c0,1.4-.2,2.8-.6,4.1-1.5,0-3,0-4.6,0-6,.1-13.3-.6-16-7.2-.2-.4-.3-.8-.4-1.2,1.4-5.4,5.5-9.3,10.4-9.3s11,6,11,13.5Z"/>
  <g>
    <path class="st11" d="M184.9,378.7c10.1,6.1,22.5,8,33.8,4.5,3.7-1.1,7.4-2.7,11.1-4.5-12.3,11.7-32.9,12.6-44.8,0h0Z"/>
    <path class="st11" d="M178,415.7c13.9,5.1,29.1,5.8,43.4,2.6,3.3-.7,6.8-1.7,10-2.6-1,.6-2,1.1-3.1,1.7-.5.3-1.8.9-2.3,1.2-15.1,6.6-34,6.5-48-2.8h0Z"/>
    <path class="st11" d="M172.4,455.6c18.3,5.9,37.9,6.4,56.7,2.7,2.7-.5,5.4-1.2,8.1-1.7-1.3.6-2.5,1.1-3.8,1.6-19,7.6-42.8,7.4-60.9-2.6h0Z"/>
  </g>
  <g>
    <path class="st5" d="M331.3,413.1c0,.6-.4,1.1-.9,1.1s-.9-.5-.9-1.1.4-1.1.9-1.1.9.5.9,1.1Z"/>
    <path class="st5" d="M404,355.1c.4.4.5,1,.2,1.5-.3.5-.8.6-1.2.2-.4-.4-.5-1-.2-1.5.3-.5.8-.6,1.2-.2Z"/>
    <ellipse class="st5" cx="317.5" cy="409.3" rx="4" ry="4.9"/>
    <path class="st5" d="M396,364.2c1.8,1.6,2.1,4.7.8,6.9-1.3,2.2-3.8,2.6-5.6,1s-2.1-4.7-.8-6.9,3.8-2.6,5.6-1Z"/>
    <ellipse class="st5" cx="333.3" cy="408.3" rx="2" ry="2.5"/>
    <ellipse class="st5" cx="338.4" cy="416.7" rx="2" ry="2.5"/>
    <path class="st5" d="M400.8,360.4c.9.8,1.1,2.4.4,3.5-.7,1.1-1.9,1.3-2.8.5-.9-.8-1.1-2.4-.4-3.5.7-1.1,1.9-1.3,2.8-.5Z"/>
    <path class="st5" d="M343.9,412.1c0,.7-.8,1.2-1.8,1.2s-1.8-.5-1.8-1.2.8-1.2,1.8-1.2,1.8.5,1.8,1.2Z"/>
    <path class="st5" d="M407.9,358.7c.4.4.3,1.5-.3,2.4-.6.9-1.4,1.4-1.8,1-.4-.4-.3-1.5.3-2.4s1.4-1.4,1.8-1Z"/>
    <path class="st5" d="M327.5,410.5c0,.7-.8,1.2-1.8,1.2s-1.8-.5-1.8-1.2.8-1.2,1.8-1.2,1.8.5,1.8,1.2Z"/>
    <path class="st5" d="M403.3,366.2c.4.4.3,1.5-.3,2.4-.6.9-1.4,1.4-1.8,1-.4-.4-.3-1.5.3-2.4.6-.9,1.4-1.4,1.8-1Z"/>
    <path class="st5" d="M325.7,416.7c0,.7-.8,1.2-1.8,1.2s-1.8-.5-1.8-1.2.8-1.2,1.8-1.2,1.8.5,1.8,1.2Z"/>
    <ellipse class="st5" cx="189.7" cy="307.4" rx=".9" ry="1.1"/>
    <ellipse class="st5" cx="176.8" cy="303.6" rx="4" ry="4.9"/>
    <path class="st5" d="M194.6,302.6c0,1.4-.9,2.5-2,2.5s-2-1.1-2-2.5.9-2.5,2-2.5,2,1.1,2,2.5Z"/>
    <path class="st5" d="M199.7,311c0,1.4-.9,2.5-2,2.5s-2-1.1-2-2.5.9-2.5,2-2.5,2,1.1,2,2.5Z"/>
    <path class="st5" d="M203.2,306.4c0,.7-.8,1.2-1.8,1.2s-1.8-.5-1.8-1.2.8-1.2,1.8-1.2,1.8.5,1.8,1.2Z"/>
    <path class="st5" d="M186.7,304.8c0,.7-.8,1.2-1.8,1.2s-1.8-.5-1.8-1.2.8-1.2,1.8-1.2,1.8.5,1.8,1.2Z"/>
    <path class="st5" d="M185,311c0,.7-.8,1.2-1.8,1.2s-1.8-.5-1.8-1.2.8-1.2,1.8-1.2,1.8.5,1.8,1.2Z"/>
  </g>
</svg>