<?xml version="1.0" encoding="UTF-8"?>
<svg id="Layer_1" xmlns="http://www.w3.org/2000/svg" version="1.1" viewBox="0 0 512 512">
  <!-- Generator: Adobe Illustrator 29.3.1, SVG Export Plug-In . SVG Version: 2.1.0 Build 151)  -->
  <defs>
    <style>
      .st0 {
        fill: #ff5120;
      }

      .st1 {
        fill: #ea461f;
      }

      .st2 {
        fill: #ff092a;
      }

      .st3 {
        fill: #bf3616;
      }

      .st4 {
        fill: #f3833a;
      }

      .st5 {
        fill: #ffd1ae;
      }

      .st6 {
        fill: #39caf7;
      }

      .st7 {
        fill: #f97228;
      }

      .st8 {
        fill: #1b020a;
      }

      .st9 {
        fill: #fff0f1;
      }

      .st10 {
        opacity: 0;
      }

      .st11 {
        fill: none;
        stroke: #ff5120;
        stroke-linecap: round;
        stroke-linejoin: round;
        stroke-width: 2.1px;
      }

      .st12 {
        fill: #ffa451;
      }
    </style>
  </defs>
  <circle class="st2" cx="449" cy="314.6" r="15"/>
  <path class="st2" d="M358.2,256.1c0,8.3-6.7,15-15,15s-15-6.7-15-15,6.7-15,15-15,15,6.7,15,15Z"/>
  <path class="st2" d="M332.6,243.8c0,8.3-6.7,15-15,15s-15-6.7-15-15,6.7-15,15-15,15,6.7,15,15Z"/>
  <path class="st2" d="M492.3,319c0,.1,0,.3,0,.4-.1,4.5-2.2,8.5-5.5,11.2-5.5.6-11,1.2-16.5,1.7-4.8-2.5-8-7.5-8-13.3s0-.7,0-1.1c.5-7.8,7-14,15-14s15,6.7,15,15Z"/>
  <path class="st0" d="M384.6,282.1c0,8.3-6.7,15-15,15s-15-6.7-15-15,6.7-15,15-15,15,6.7,15,15Z"/>
  <path class="st0" d="M408.9,299c0,8.3-6.7,15-15,15s-15-6.7-15-15,6.7-15,15-15,15,6.7,15,15Z"/>
  <path class="st0" d="M435.7,312.2c0,8.3-6.7,15-15,15s-15-6.7-15-15,6.7-15,15-15,15,6.7,15,15Z"/>
  <path class="st12" d="M510.5,326.4c-1.8,1.7-4.4,2.1-6.8,2.4-5.6.7-11.2,1.3-16.8,1.9-5.5.6-11,1.2-16.5,1.7-50.3,4.8-100.8,7.5-151.3,7.9-8.4,0-16.8,0-25.1,0-9.6,0-19.2-.2-28.8-.4-28-.7-56-2-84-4-4.8-.4-9.8-.8-13.6-3.8-.8-.7-1.6-1.4-2.2-2.2-4.5-5.7-4.2-15-.8-21.8,6.1-12.2,19.8-21.7,28.8-31.5,8.5-9.2,15.7-10.1,27.3-13.6,27.2-8.2,52.7-29.1,82.2-25.7,33.1,3.8,55.4,37.4,83.5,56.7,22.7,15.6,49,21.7,76,24.2,10,.9,20,1.3,30,1.5,6.1.1,12.2.1,18.3.2,2.1,1.4,1.7,5-.1,6.8Z"/>
  <path class="st9" d="M324.9,331.1l-15.6,9.1c-5.1,0-10.2,0-15.4,0-9.6,0-19.2-.2-28.8-.4-28-.7-56-2-84-4-4.8-.4-9.8-.8-13.6-3.8-.8-.7-1.6-1.4-2.2-2.2l159.6,1.4Z"/>
  <g>
    <path class="st2" d="M102.1,214.1c.9,8-4.9,15.1-12.9,16-8,.9-15.1-4.9-16-12.9-.9-8,4.9-15.1,12.9-16,8-.9,15.1,4.9,16,12.9Z"/>
    <path class="st2" d="M86.8,239.3c.9,8-4.9,15.1-12.9,16-8,.9-15.1-4.9-16-12.9s4.9-15.1,12.9-16c8-.9,15.1,4.9,16,12.9Z"/>
    <path class="st0" d="M159.4,163.8s0,.1-.1.4c-.8,2.3-5.2,15.2-4.3,34.1l-34.9,3.8s2.6-36.7,39.4-38.3Z"/>
    <path class="st1" d="M159.2,164.1c-.8,2.3-5.2,15.2-4.3,34.1l-17.3,1.9c3.3-25.7,16.9-33.9,21.7-36Z"/>
    <path class="st2" d="M84.6,268.7c.9,8-4.9,15.1-12.9,16-8,.9-15.1-4.9-16-12.9-.9-8,4.9-15.1,12.9-16,8-.9,15.1,4.9,16,12.9Z"/>
    <path class="st10" d="M252.4,255.1s-13.2,7.2-24,11.8c0-.6,0-1.1,0-1.7,5.9-5.5,17.2-17,18.5-24.9,0,0-11.9,6.4-21.6,8.5-2.6-8.3-6.8-16.3-12.6-23.5-23.1-28.7-62.9-34.8-95.3-19-19.9,9.7-35.2,28-37.2,50.5-.9,10.5,0,21.1-1.7,31.5-1.6,9.3-6.2,16.3-11.8,23.7-.4.6-4.5,5-4.1,5.7,4.8,8.6,15.4,14.5,25.2,17.2,1.4.4,2.8-.4,3.3-1.8,1.1-3.7,2.9-7.9,7.3-9.4,3.8-1.2,8.5.2,10.4,3.7,1.9,3.4.9,8.4-1.9,11.2-.5.5-.3,1.4.4,1.6,14.7,4.2,29.9,7,45.2,6.6,2.7,0,5.5-.3,8.2-.6,7.7-1,15.3-3.2,22.3-6.3,2.5-1.1,5-2.4,7.4-3.8,1.3-.7,2.6-1.5,3.8-2.3,11.9-7.8,20.9-18.5,26.7-30.6,1.7-3.6,3.2-7.4,4.3-11.2,7-4.3,20.5-15.1,27.1-36.7Z"/>
    <path class="st12" d="M211.3,300c-5.8,12.1-14.9,22.8-26.7,30.6-1.2.8-2.5,1.6-3.8,2.3-2.4,1.4-4.9,2.7-7.4,3.8-7.1,3.2-14.7,5.3-22.3,6.3-2.7.4-5.4.6-8.2.6-15.3.4-30.5-2.4-45.2-6.6-.7-.2-.9-1.1-.4-1.6,2.8-2.8,3.8-7.8,1.9-11.2-1.9-3.4-6.6-4.9-10.4-3.7-4.4,1.4-6.2,5.7-7.3,9.4-.4,1.4-1.9,2.2-3.3,1.8-9.8-2.7-20.4-8.6-25.2-17.2-.4-.7,3.6-5.2,4.1-5.7,5.6-7.3,10.2-14.4,11.8-23.7,1.8-10.4.8-21,1.7-31.5,2-22.5,17.3-40.7,37.2-50.5,32.4-15.8,72.2-9.8,95.3,19,18.6,23.1,20.2,53.2,8.4,77.7Z"/>
    <path class="st0" d="M232.2,187.9s-.2.2-.6.6c-3.4,3.6-21.5,23.4-28.8,41.9,0,0-6.9,2.9-17-.7-.8-.3-1.7-.6-2.6-1-7.8-3.5-11.5-10.5-11.5-10.5,0,0,12.7-43.6,60.5-30.3Z"/>
    <path class="st12" d="M181.7,201.1c-.4-2.1-.3-4.4.3-6.5.4-1.3.7-3.1-.5-3.7-.9-.5-1.9,0-2.7.6-3.4,2.2-6.7,4.4-10.1,6.5-2,.7-1.8-1.7-1.7-2.9.1-1.2.7-2.3,1-3.5.3-1.2.3-2.6-.6-3.4-.7-.7-1.8-.8-2.7-.5-.9.3-1.7.8-2.5,1.4,0,0-6.8,4-8.4,8.5l22.2,10.3,5.5-6.8Z"/>
    <path class="st12" d="M211.9,294.6s22.4-9.1,31.6-39.1c0,0-16.6,9-27.8,13.4,0,0,20.4-17.4,22.2-28.2,0,0-15.6,8.3-25.6,9.2,0,0-1.1,38.1-.4,44.7Z"/>
    <path class="st7" d="M171.3,300.8c1.8,4.7-3.4,11.1-11.7,14.4-8.3,3.2-16.5,2.1-18.3-2.6-1.8-4.7,3.4-11.1,11.7-14.4,8.3-3.2,16.5-2.1,18.3,2.6Z"/>
    <path class="st1" d="M231.6,188.5c-3.4,3.6-21.5,23.4-28.8,41.9,0,0-6.9,2.9-17-.7,16.8-33,36.9-39.8,45.8-41.2Z"/>
    <g>
      <path class="st3" d="M178,213.5c.8,1.4,1.9,2.4,3.1,3.4,3.6,3,7.5,5.4,11.6,7.8-5.5,0-14.3-5.3-14.7-11.2h0Z"/>
      <path class="st3" d="M184.9,205.5c4.3,2.6,7.6,6.2,12,8.7-5.4.4-9.9-4.1-12-8.7h0Z"/>
      <path class="st3" d="M193,197.8c3.1,2.5,5.7,5.1,8.1,8.3-4-.7-7.5-4.3-8.1-8.3h0Z"/>
      <path class="st3" d="M201.6,192.3c2.3,2.8,5.1,4.8,6.6,8.1-3.3-.8-7.3-4.5-6.6-8.1h0Z"/>
      <path class="st3" d="M212.3,189.1c1.9,1.2,3,2.9,3.3,5.1-2.4-.2-4.1-2.8-3.3-5.1h0Z"/>
    </g>
    <g>
      <path class="st3" d="M124.8,190.6c4.9,1.3,9,3.9,14,5-5.1,1.9-10.7-1.2-14-5h0Z"/>
      <path class="st3" d="M130.5,181c3.7,1.5,6.9,3.3,10.1,5.7-4.1.4-8.4-2-10.1-5.7h0Z"/>
      <path class="st3" d="M137.1,173.3c3,2,6.2,3.2,8.6,6-3.4,0-8.2-2.3-8.6-6h0Z"/>
      <path class="st3" d="M146.5,167.2c2.1.6,3.7,1.9,4.6,4-2.3.5-4.8-1.6-4.6-4h0Z"/>
    </g>
    <path class="st3" d="M155.2,305.3c-.2,1.9-.4,3.9-.8,5.7s-.2,1,.2.9.7-.8.8-1.1c.4-2,.7-4.1.9-6.2s0-.8-.4-.6-.6.9-.7,1.3h0Z"/>
    <path class="st3" d="M159.1,305.9c-.8,2.6-1.3,5.3-1.6,8s.4-.2.4-.2c.2-.4.4-.9.4-1.4.2-2.3.6-4.6,1.3-6.8s.3-.8,0-.8-.3.3-.3.4c-.1.2-.2.5-.3.8h0Z"/>
    <path class="st4" d="M70.3,301c0,.4-.2.7-.6.8-.4,0-.7-.2-.8-.6s.2-.7.6-.8c.4,0,.7.2.8.6Z"/>
    <path class="st4" d="M158.9,294.3c0,.4-.2.7-.6.8-.4,0-.7-.2-.8-.6,0-.4.2-.7.6-.8.4,0,.7.2.8.6Z"/>
    <path class="st4" d="M66.6,302.1c0,.4-.2.7-.6.8-.4,0-.7-.2-.8-.6,0-.4.2-.7.6-.8.4,0,.7.2.8.6Z"/>
    <path class="st4" d="M163.4,293.8c0,.4-.2.7-.6.8-.4,0-.7-.2-.8-.6,0-.4.2-.7.6-.8.4,0,.7.2.8.6Z"/>
    <path class="st4" d="M76.4,297.5c.2,1.5-.9,2.8-2.4,3-1.5.2-2.8-.9-3-2.4s.9-2.8,2.4-3c1.5-.2,2.8.9,3,2.4Z"/>
    <path class="st4" d="M156.1,293.1c.1,1.3-.8,2.4-2.1,2.6-1.3.1-2.4-.8-2.6-2.1-.1-1.3.8-2.4,2.1-2.6,1.3-.1,2.4.8,2.6,2.1Z"/>
    <path class="st4" d="M67.6,305.1c0,.4-.5.9-1.3.9s-1.4-.2-1.5-.6c0-.4.5-.9,1.3-.9.8,0,1.4.2,1.5.6Z"/>
    <path class="st4" d="M159.9,291c0,.4-.5.9-1.3.9-.8,0-1.4-.2-1.5-.6,0-.4.5-.9,1.3-.9s1.4.2,1.5.6Z"/>
    <path class="st5" d="M91.6,221c3.5-3.2,7.3-5.9,11.2-8.6.7-.5,1.6-.9,2.2-.4.8.6.5,2.4-.5,2.7-5.2,1.3-15.9,11.4-20.7,19.4-5.3,8.9-6.5,21.2-7.1,30.4,0,.4-1.4-.7-1.5-.9-.4-.6-.3-1.2-.3-1.9,0-1.5,0-3.1.1-4.7.1-3.3.6-6.6,1.4-9.8,1.5-6.4,4.2-12.5,7.9-17.9,2.1-3.1,4.6-5.9,7.3-8.4Z"/>
    <path class="st5" d="M116.8,208.2c.4.9-1.6,2.5-4.4,3.6-2.8,1.1-5.3,1.2-5.7.3s1.6-2.5,4.4-3.6c2.8-1.1,5.3-1.2,5.7-.3Z"/>
  </g>
  <path class="st10" d="M103.6,332.9c.8,2.2,1.1,4.7,2.8,6.3.9.8,2,1.3,3.1,1.9,1.9,1.2,3.6,2.8,5.5,4,4.7,2.9,10.7,2.6,16.1,1.5,1.8-.4,4.1-1.2,4.3-3,.2-1.5-1-2.8-2.3-3.6-6.5-4.1-15.4-2.2-22-6-2.5-1.5-7.4-7.4-10.5-6.5,1,1.8,2.4,3.3,3.1,5.4Z"/>
  <path class="st6" d="M102.4,330.6c.8,2.2,1.1,4.7,2.8,6.3.9.8,2,1.3,3.1,1.9,1.9,1.2,3.6,2.8,5.5,4,4.7,2.9,10.7,2.6,16.1,1.5,1.8-.4,4.1-1.2,4.3-3,.2-1.5-1-2.8-2.3-3.6-6.5-4.1-15.4-2.2-22-6-2.5-1.5-7.4-7.4-10.5-6.5,1,1.8,2.4,3.3,3.1,5.4Z"/>
  <g>
    <path class="st11" d="M1.1,272c13.7-7.7,27.3-15.4,41-23.2-5.6,11.2-12.2,22-19.7,32,6.6-3.1,13.6-5.5,20.8-7"/>
    <path class="st11" d="M16.9,300.9c10.8-8.7,13.5-12.5,21.1-17.6-3.3,8.9-7.5,17.1-11.4,24.7,7.8-1.9,15.8-5.6,22.2-7.7"/>
  </g>
  <path class="st10" d="M214.4,320.5c-11.5,3.4-22,9.3-32.4,15.2-2.1,1.2-4.4,2.7-4.5,5.1,0,1.7,1.2,3.3,2.8,4.1,1.6.8,3.3,1,5.1,1.1,24.2,2.1,48.4,2.7,72.7,1.9,4.5-.1,10.1-1,11.6-5.3,1.1-3.2-.7-6.6-2.8-9.2-12.4-15.7-34.4-18.2-52.5-12.8Z"/>
  <path class="st10" d="M336.4,320.5c-11.5,3.4-22,9.3-32.4,15.2-2.1,1.2-4.4,2.7-4.5,5.1,0,1.7,1.2,3.3,2.8,4.1,1.6.8,3.3,1,5.1,1.1,24.2,2.1,48.4,2.7,72.7,1.9,4.5-.1,10.1-1,11.6-5.3,1.1-3.2-.7-6.6-2.8-9.2-12.4-15.7-34.4-18.2-52.5-12.8Z"/>
  <path class="st12" d="M275.7,342.6c-1.5,4.3-7.1,5.2-11.6,5.3-21.6.7-43.3.3-64.9-1.3-2.6-.2-5.2-.4-7.8-.6-1.7-.1-3.5-.3-5.1-1.1-1.5-.8-2.8-2.3-2.8-4.1,0-2.4,2.4-4,4.5-5.1.1,0,.3-.2.4-.3,10.2-5.8,20.6-11.6,32-14.9,18.1-5.3,40.1-2.8,52.5,12.8,2.1,2.6,3.9,6.1,2.8,9.2Z"/>
  <path class="st12" d="M397.5,342.6c-1.5,4.3-7.1,5.2-11.6,5.3-21.5.7-43.1.3-64.6-1.3-2.7-.2-5.4-.4-8.1-.6-1.7-.1-3.5-.3-5.1-1.1-1.5-.8-2.9-2.3-2.8-4.1,0-2.3,2.4-3.9,4.4-5.1,0,0,0,0,0,0,10.4-5.9,20.9-11.8,32.4-15.2,18.1-5.3,40.1-2.8,52.5,12.8,2.1,2.6,3.9,6.1,2.7,9.2Z"/>
  <g>
    <path class="st4" d="M307.4,322c0,.4-.3.7-.7.7s-.7-.3-.7-.7.3-.7.7-.7.7.3.7.7Z"/>
    <path class="st4" d="M445.5,319.8c.3.2.4.7.1,1-.2.3-.7.4-1,.1-.3-.2-.4-.7-.1-1,.2-.3.7-.4,1-.1Z"/>
    <circle class="st4" cx="296.4" cy="319.5" r="3.2"/>
    <path class="st4" d="M439.1,325.8c1.4,1.1,1.7,3.1.7,4.5-1.1,1.4-3.1,1.7-4.5.7s-1.7-3.1-.7-4.5c1.1-1.4,3.1-1.7,4.5-.7Z"/>
    <circle class="st4" cx="309.1" cy="318.8" r="1.6"/>
    <path class="st4" d="M314.8,324.3c0,.9-.7,1.6-1.6,1.6s-1.6-.7-1.6-1.6.7-1.6,1.6-1.6,1.6.7,1.6,1.6Z"/>
    <path class="st4" d="M442.9,323.3c.7.5.9,1.6.3,2.3-.5.7-1.6.9-2.3.3-.7-.5-.9-1.6-.3-2.3.5-.7,1.6-.9,2.3-.3Z"/>
    <path class="st4" d="M317.6,321.3c0,.4-.6.8-1.4.8s-1.4-.4-1.4-.8.6-.8,1.4-.8,1.4.4,1.4.8Z"/>
    <path class="st4" d="M448.7,322.2c.4.3.3,1-.2,1.6-.5.6-1.1.9-1.5.7-.4-.3-.3-1,.2-1.6.5-.6,1.1-.9,1.5-.7Z"/>
    <path class="st4" d="M304.4,320.3c0,.4-.6.8-1.4.8s-1.4-.4-1.4-.8.6-.8,1.4-.8,1.4.4,1.4.8Z"/>
    <path class="st4" d="M445,327.2c.4.3.3,1-.2,1.6-.5.6-1.1.9-1.5.7-.4-.3-.3-1,.2-1.6.5-.6,1.1-.9,1.5-.7Z"/>
    <path class="st4" d="M303,324.3c0,.4-.6.8-1.4.8s-1.4-.4-1.4-.8.6-.8,1.4-.8,1.4.4,1.4.8Z"/>
    <path class="st4" d="M279.3,246.9c-.1-.4,0-.8.5-.9.4-.1.8,0,.9.5.1.4,0,.8-.5.9-.4.1-.8,0-.9-.5Z"/>
    <path class="st4" d="M287.6,246.9c-.5-1.7.4-3.5,2.1-4.1s3.5.4,4.1,2.1c.5,1.7-.4,3.5-2.1,4.1-1.7.5-3.5-.4-4.1-2.1Z"/>
    <path class="st4" d="M277.2,250.9c-.3-.9.2-1.8,1-2,.9-.3,1.8.2,2,1,.3.9-.2,1.8-1,2-.9.3-1.8-.2-2-1Z"/>
    <path class="st4" d="M271.6,246.9c-.3-.9.2-1.8,1-2,.9-.3,1.8.2,2,1,.3.9-.2,1.8-1,2-.9.3-1.8-.2-2-1Z"/>
    <path class="st4" d="M269.9,250.7c-.1-.4.4-1,1.1-1.2.7-.2,1.5,0,1.6.3.1.4-.4,1-1.1,1.2-.7.2-1.5,0-1.6-.3Z"/>
    <path class="st4" d="M282.8,247.6c-.1-.4.4-1,1.1-1.2.7-.2,1.5,0,1.6.3.1.4-.4,1-1.1,1.2-.7.2-1.5,0-1.6-.3Z"/>
    <path class="st4" d="M282.8,243.3c-.1-.4.4-1,1.1-1.2.7-.2,1.5,0,1.6.3.1.4-.4,1-1.1,1.2-.7.2-1.5,0-1.6-.3Z"/>
  </g>
  <path class="st8" d="M107.6,284c1.3,4.4,2.5,9.1,5.1,12.8,3.5,5.2,10.9,6.8,16.4,4.1,6.2-3,8.9-9.4,9.8-16.4,2.8,10.4-4.3,22.1-15.7,21.9-12.5-.3-16.7-11.5-15.5-22.4h0Z"/>
  <path class="st0" d="M321.8,344c0,.9-.1,1.8-.4,2.6-2.7-.2-5.4-.4-8.1-.6-1.7-.1-3.5-.3-5.1-1.1-1.5-.8-2.9-2.3-2.8-4.1,0-2.3,2.4-3.9,4.4-5.1,0,0,0,0,0,0,1-.4,2-.5,3.1-.5,4.9,0,8.9,4,8.9,8.9Z"/>
  <path class="st0" d="M199.6,344c0,.9-.1,1.8-.4,2.6-2.6-.2-5.2-.4-7.8-.6-1.7-.1-3.5-.3-5.1-1.1-1.5-.8-2.8-2.3-2.8-4.1,0-2.4,2.4-4,4.5-5.1.1,0,.3-.2.4-.3.7-.2,1.5-.3,2.3-.3,4.9,0,8.9,4,8.9,8.9Z"/>
  <g>
    <path class="st2" d="M313.4,271.9c-6.5-.1-19.1-1.1-21.6-6.4,0-.2-.3-.2-.4-.2-7.7,3.6-14.3.6-14.1-6.1,0-.3-.3-.4-.5-.3-2.2,1.5-10.9,6.4-12.7-5.7,0-.3-.4-.4-.6-.1-1.9,3.1-9.3,14-16.4,9.7-.3-.2-.6.2-.4.5,4.6,5.8,17.3,20.8,25.7,18.5,20-5.4,34.5-8.2,41-9.3.4,0,.3-.6,0-.6Z"/>
    <path class="st3" d="M273.3,285.7c13.6-3,30.1-10.5,41.3-13.2.3,0,.3-.5,0-.5-6.1.3-21.3,1.5-40.3,7.3-7.8,2.4-16-6.4-27.4-16.7-.2-.2-.6,0-.4.3,4.4,6,18.6,24.5,26.9,22.7Z"/>
    <g>
      <path class="st3" d="M292,265.2l-12.3,10.8c5.1-2.2,9.5-6,12.3-10.8Z"/>
      <path class="st3" d="M277.5,258.7l-8.3,16.1c4.9-3.8,8-9.9,8.3-16.1Z"/>
      <path class="st3" d="M261.9,270.1c1.8-5.2,2.3-10.8,1.5-16.3l-1.5,16.3Z"/>
    </g>
  </g>
</svg>