<?xml version="1.0" encoding="UTF-8"?>
<svg id="Layer_1" xmlns="http://www.w3.org/2000/svg" version="1.1" viewBox="0 0 512 512">
  <!-- Generator: Adobe Illustrator 29.3.1, SVG Export Plug-In . SVG Version: 2.1.0 Build 151)  -->
  <defs>
    <style>
      .st0, .st1 {
        fill: #262324;
      }

      .st1 {
        opacity: .2;
      }

      .st2 {
        fill: #fff;
      }

      .st2, .st3, .st4, .st5 {
        stroke: #262324;
        stroke-linecap: round;
        stroke-linejoin: round;
        stroke-width: 2.6px;
      }

      .st3 {
        fill: #bbd2da;
      }

      .st4 {
        fill: #de6848;
      }

      .st5 {
        fill: none;
      }
    </style>
  </defs>
  <ellipse class="st0" cx="267.2" cy="484.4" rx="136.2" ry="27.6"/>
  <g>
    <g>
      <path class="st4" d="M234.7,313.4c-2.5,1.8-60,45.9-25,153.2.9,2.7,3,4.7,5.5,5.6,1.7.6,3.6.6,5.5,0,4.6-1.5,7.1-6.4,5.6-11-12.8-39.4-13.6-75-2.2-103.1,8.5-21,21-30.6,21.1-30.7"/>
      <path class="st0" d="M231.9,342.9c6.8-10.5,13.2-15.4,13.3-15.5l-10.4-14c-.9.7-8.9,6.8-17.2,19.4,4.6,3.6,9.4,7.1,14.4,10.1Z"/>
    </g>
    <g>
      <g>
        <path class="st3" d="M228.1,417.2s-32.2-10.8-36,2.1c-3,10.3-2.9,26.8-2.7,34.7-4.8.4-18-.4-23.4,1.7-12.8,4.8-8.3,19.9-8.3,19.9,28.7,18.9,70.7-2.3,70.7-2.3-1.8-29-.3-56.2-.3-56.2Z"/>
        <path class="st2" d="M157.1,467.6c-.4,4.3.7,8,.7,8,28.7,18.9,70.7-2.3,70.7-2.3-.1-2.4-.3-4.8-.4-7.2-34.2,13.8-56.9,9.2-71,1.4Z"/>
      </g>
      <g>
        <path class="st2" d="M186.4,427s-3.5-27.5-1.3-35.9c2.2-8.4,14.4-6.9,14.4-6.9,0,0-4.9,8.9,8.2,10.9,5.7.9,7.9-1,8.7-3,.7-1.8.3-3.6.3-3.6,1.2-3.8,13.9-.2,15.8,4.2,3.5,8,2.7,39.2-5.8,42.4-11.4,4.3-32.8,3.6-40.4-8.1Z"/>
        <path class="st5" d="M197.5,389.1s-4.5,1.1-6,5.9c-1.8,5.7.5,37.6.5,37.6"/>
        <path class="st5" d="M203.9,394.1s-3.5,2.2-3.6,6c-.1,3.8,1.5,36.3,1.5,36.3"/>
        <path class="st5" d="M210.7,395.3s3.8,1.9,4.9,6c1,3.8-1.1,36.1-1.1,36.1"/>
        <path class="st5" d="M223.7,436.1s5.6-31.3,1.5-38.9c-2.2-4.1-8.8-5-8.8-5"/>
      </g>
    </g>
  </g>
  <g>
    <g>
      <path class="st4" d="M178,250.1c0,.3,2.2,17.8-8.9,32.1-8.5,10.8-22.6,17.4-41.9,19.5-4.4.5-7.5,4.4-7.1,8.8,0,.8.3,1.5.6,2.2,1.3,3.2,4.6,5.2,8.2,4.8,23.9-2.6,41.7-11.3,52.9-25.8,15.3-19.8,12.1-43,12-44"/>
      <g>
        <g>
          <path class="st2" d="M94.8,286.6s6.8,7.7-7,5c-16.2-3.2-24.8-6.1-25.9,4.2-1,9.4,28.4,11.3,28.4,11.3,0,0-21.4.9-27.7,5.6s-2.7,10.5,2,12.5c4.7,1.9,28.9-3.7,28.9-3.7,0,0-11.9,6.2-18.1,11.3-6.2,5.1-5.1,10.2,1.2,12.8s25.6-12.6,25.6-12.6c22.2-.2,31-7.4,28.3-26.9-2.8-19.5-9.7-19-17-22.6-7.3-3.6-9.7-9.4-9.7-9.4,0,0-5.3-10.4-10.4-6-8.9,7.6,1.3,18.5,1.3,18.5Z"/>
          <path class="st2" d="M125.3,296.4s-1-9.9,9-5.2c12.4,5.8,11.2,36.8-3.1,35.8-5.6-.4-6-30.6-6-30.6Z"/>
        </g>
        <path class="st5" d="M92.4,297.2s-5.1,16.8,4.4,29.8"/>
      </g>
    </g>
    <path class="st4" d="M193,300.7c36.1,35.2,94.9,41.2,139,26.5,30.9-10.3,62.7-34.7,73.7-80.4,24.1-99.8-75-140.8-108-145.9-53.5-8.3-125.6,16.8-137.3,97-6.1,41.3,10.8,81.5,32.6,102.8Z"/>
    <g>
      <path class="st4" d="M386,255.7c.3,0,17.3,4.9,26.1,20.8,6.7,12,7.2,27.6,1.7,46.2-1.3,4.2,1.1,8.7,5.4,9.9.8.2,1.5.3,2.3.3,3.4,0,6.6-2.2,7.6-5.7,6.9-23,5.9-42.8-3.1-58.8-12.3-21.8-34.9-28-35.9-28.2"/>
      <g>
        <g>
          <path class="st2" d="M387.2,346.5s9.7-3.2,1.9,8.4c-9.2,13.7-15.3,20.5-6.2,25.5,8.3,4.6,21.5-21.8,21.5-21.8,0,0-6,22.7-4.2,30.3,1.9,7.6,8.6,6.6,12.3,3,3.6-3.6,6.3-30.7,6.3-30.7,0,0,2.6,16,4.9,23.7,2.3,7.7,7.4,8.7,12.3,3.9,4.8-4.8-3.1-31.2-3.1-31.2,8.5-20.5,5.3-31.5-13.8-36.5-19.1-5.1-21.3,1.6-27.4,6.9-6.1,5.3-12.4,5.2-12.4,5.2,0,0-11.6.8-9.5,7.2,3.6,11.2,17.5,6,17.5,6Z"/>
          <path class="st2" d="M408.1,322.3s-9.5-2.9-1.3-10.4c10.2-9.2,38.2,4,31.8,16.8-2.5,5-30.5-6.4-30.5-6.4Z"/>
        </g>
        <g>
          <path class="st0" d="M425.7,338.5s-1.9,9.4,1,9.5c2.8,0-1-9.5-1-9.5Z"/>
          <path class="st0" d="M408.7,333s-7.7,3.8-6,6c1.8,2.2,6-6,6-6Z"/>
          <path class="st0" d="M416.3,337.2s1.1,10.3-3.6,10.3c-2.2,0,3.6-10.3,3.6-10.3Z"/>
        </g>
      </g>
    </g>
  </g>
  <g>
    <g>
      <path class="st2" d="M259.5,69.3l-7.1,33.7s55.6,41.5,123,34.9l16.6-31.9-70.1-56.7-62.4,20Z"/>
      <path class="st1" d="M259.6,68.6l-3,20.6s53,49.3,120.4,42.8l13.7-25.5-68.7-57.2-62.3,19.3Z"/>
    </g>
    <g>
      <path class="st3" d="M294.3,59.8c46.3,116.8,190.2,62.6,152.1-12.6-31.7-62.6-92.9-13.7-129.2-30.5-52.1-24.2-76.2-19.7-87.5,12.6-13.3,37.9,17.9,52.1,17.9,52.1,0,0,22.6,12.1,62,7.7"/>
      <path class="st0" d="M308.3,12.7s25.2-19.7,43.6,6.6c0,0-21.5,5.8-43.6-6.6Z"/>
      <path class="st0" d="M345.6,20.6s55.8-6.9,51.5,88.6l17.5-15.3,17.7,6.1S424.3,0,348.7,15.2l-3.1,5.4Z"/>
    </g>
  </g>
  <g>
    <path class="st4" d="M297.3,316.8c-1.5,2.7-36.4,66.2,39,150.3,1.9,2.1,4.6,3.1,7.3,2.9,1.8-.2,3.6-.9,5-2.2,3.6-3.2,3.9-8.7.7-12.3-27.7-30.9-42.8-63.1-43.7-93.4-.7-22.6,6.8-36.5,6.9-36.6"/>
    <g>
      <g>
        <path class="st3" d="M333.2,414.3s-33.8,3.1-32.1,16.5c1.4,10.6,8.2,25.7,11.6,32.8-4.3,2.3-16.6,6.9-20.7,11-9.8,9.6.4,21.6.4,21.6,33.9,5.7,63.8-30.6,63.8-30.6-13.3-25.8-23-51.3-23-51.3Z"/>
        <path class="st2" d="M288.6,489.2c1.3,4.1,3.8,7.1,3.8,7.1,33.9,5.7,63.8-30.6,63.8-30.6-1.1-2.1-2.2-4.3-3.2-6.4-25.8,26.4-48.3,31.4-64.4,29.9Z"/>
      </g>
      <g>
        <path class="st2" d="M299,440.3s-14.3-23.7-15.7-32.3c-1.4-8.5,10.4-12.1,10.4-12.1,0,0-.9,10.1,11.9,6.6,5.6-1.5,6.8-4.1,6.7-6.3,0-1.9-1.2-3.4-1.2-3.4-.4-4,12.6-5.8,16.1-2.5,6.4,5.9,18.3,34.8,11.9,41.1-8.7,8.5-28.5,16.5-40.2,8.9Z"/>
        <g>
          <path class="st5" d="M293.9,401s-3.7,2.9-3.1,7.8c.7,6,15.7,34.2,15.7,34.2"/>
          <path class="st5" d="M301.7,403s-2.3,3.5-.8,7c1.4,3.5,16.1,32.6,16.1,32.6"/>
          <path class="st5" d="M308.5,401.4s4.3.2,6.9,3.6c2.4,3.1,13.6,33.4,13.6,33.4"/>
          <path class="st5" d="M336.8,433.5s-7.6-30.9-14.4-36.2c-3.7-2.9-10-1.1-10-1.1"/>
        </g>
      </g>
    </g>
  </g>
  <g>
    <g>
      <g>
        <g>
          <ellipse class="st2" cx="316.5" cy="204.7" rx="33.7" ry="25" transform="translate(71.9 491.5) rotate(-82.4)"/>
          <path class="st0" d="M313.9,210l12.9-1c.8-12.5-4.3-23.1-12-24.1-8.3-1.1-16.5,9.1-18.4,22.8-1.8,13.7,3.5,25.7,11.8,26.8,7.3,1,14.5-6.7,17.4-17.8l-11.7-6.7Z"/>
        </g>
        <path class="st0" d="M288.7,163s-2.8,13.5,13.1,11.2c19.8-2.8,33.6-29.4,47.9-9.7,0,0-1.7-15.8-14.9-14.4-16.5,1.8-32.3,19.2-46.1,12.9Z"/>
        <path class="st4" d="M316.2,217.5c-7.9-.7-15.8-.5-23.8-.4,2.7,11.3,10,19.7,19.6,21,9.9,1.3,19.5-5.4,24.9-16.2-6.8-1.9-13.6-3.7-20.8-4.4Z"/>
      </g>
      <g>
        <g>
          <ellipse class="st2" cx="239.1" cy="194.5" rx="33.7" ry="25" transform="translate(14.9 406) rotate(-82.4)"/>
          <path class="st0" d="M244.2,198.8l12.9-1c.8-12.5-4.3-23.1-12-24.1-8.3-1.1-16.5,9.1-18.4,22.8-1.8,13.7,3.5,25.7,11.8,26.8,7.3,1,14.5-6.7,17.4-17.8l-11.7-6.7Z"/>
          <path class="st4" d="M237.7,206.6c-7.5-1.6-15.3-2-22.9-1.6,2.3,12.2,9.9,21.5,20,22.8,9.1,1.2,17.9-4.4,23.5-13.6-6.5-3.4-13.4-6-20.6-7.6Z"/>
        </g>
        <path class="st0" d="M269.1,157.6s-24-24.9-49.7-2.7c0,0,6.7-20.8,27.6-17.9,21.4,3,22.1,20.6,22.1,20.6Z"/>
      </g>
    </g>
    <g>
      <path class="st5" d="M274.6,222.8s-21.7-10.4-25.9,5.9c-4.2,16.3,23.6,22.5,24.3,11.6"/>
      <g>
        <g>
          <g>
            <path class="st5" d="M336.4,250.2s-86.4,36.2-128.3-22.5"/>
            <path class="st5" d="M338.3,236.5s-8.8,7-.1,15.2c5.6,5.4,13.4.2,13.4.2"/>
            <path class="st5" d="M209.7,216s3.7,9.1-4.3,11.3c-8,2.2-11.2-4.5-11.2-4.5"/>
          </g>
          <path class="st2" d="M311.9,257.6s-15.6,26.9-50.4,19.1c-25.5-5.7-34.2-30-34.2-30,0,0,35.5,24.2,84.6,10.9Z"/>
          <path class="st5" d="M300.2,280s-16.5,12.6-33.7,10.4c-17.2-2.2-27.5-18.4-27.5-18.4"/>
        </g>
        <g>
          <path class="st5" d="M243.9,255.3c-.6,0-2.6,7.1-1.1,12.3"/>
          <path class="st5" d="M255.7,258.3s-2.8,7.3-2.8,15.5"/>
          <line class="st5" x1="268.6" y1="261.5" x2="266.8" y2="277.7"/>
          <path class="st5" d="M283.4,261.5s.8,6.8-2,16"/>
          <path class="st5" d="M296.4,260.7s1.1,3.7-.7,11.9"/>
        </g>
      </g>
    </g>
  </g>
</svg>