<?xml version="1.0" encoding="UTF-8"?>
<svg id="Layer_1" xmlns="http://www.w3.org/2000/svg" version="1.1" viewBox="0 0 512 512">
  <!-- Generator: Adobe Illustrator 29.3.1, SVG Export Plug-In . SVG Version: 2.1.0 Build 151)  -->
  <defs>
    <style>
      .st0, .st1 {
        fill: #262324;
      }

      .st2, .st3, .st4, .st5, .st6 {
        stroke: #262324;
        stroke-linecap: round;
        stroke-linejoin: round;
      }

      .st2, .st3, .st5, .st6 {
        stroke-width: 2.6px;
      }

      .st2, .st4 {
        fill: #fff;
      }

      .st3 {
        fill: #de6848;
      }

      .st4 {
        stroke-width: 2.6px;
      }

      .st1 {
        isolation: isolate;
        opacity: .2;
      }

      .st5 {
        fill: none;
      }

      .st6 {
        fill: #bbd2da;
      }
    </style>
  </defs>
  <ellipse class="st0" cx="267.1" cy="485.8" rx="135.9" ry="27.6"/>
  <g>
    <g>
      <path class="st3" d="M234.7,314.7c-2.5,1.8-59.9,45.9-25,153.4.8,2.7,3,4.7,5.5,5.6,1.6.5,3.6.7,5.5,0,4.5-1.5,7.1-6.5,5.6-11-12.8-39.4-13.6-75.1-2.2-103.1,8.5-21,21-30.6,21-30.8"/>
      <path class="st0" d="M231.8,344.3c6.7-10.4,13.2-15.4,13.2-15.5l-10.4-14c-.8.7-8.9,6.9-17.2,19.4,4.7,3.6,9.3,7.1,14.4,10.2Z"/>
    </g>
    <g>
      <g>
        <path class="st6" d="M228.1,418.5s-32.1-10.8-36,2.2c-3,10.3-2.9,26.8-2.6,34.7-4.8.4-18-.4-23.3,1.6-12.8,4.8-8.2,19.9-8.2,19.9,28.7,18.9,70.6-2.2,70.6-2.2-1.8-29-.3-56.3-.3-56.3h-.1Z"/>
        <path class="st2" d="M157.1,468.9c-.4,4.4.7,8.1.7,8.1,28.7,18.9,70.6-2.2,70.6-2.2-.1-2.5-.3-4.8-.4-7.1-34.2,13.7-56.8,9.2-70.9,1.4h0Z"/>
      </g>
      <g>
        <path class="st2" d="M186.4,428.4s-3.4-27.5-1.2-35.8,14.4-6.9,14.4-6.9c0,0-4.9,8.9,8.2,10.8,5.6.8,7.8-1,8.7-3,.7-1.8.3-3.6.3-3.6,1.2-3.8,13.9-.1,15.8,4.3,3.4,8,2.7,39.3-5.8,42.4-11.4,4.3-32.7,3.6-40.4-8.1h0Z"/>
        <path class="st5" d="M197.5,390.4s-4.5,1.1-6,5.9c-1.8,5.8.5,37.6.5,37.6"/>
        <path class="st5" d="M203.9,395.5s-3.4,2.2-3.6,6c0,3.8,1.5,36.4,1.5,36.4"/>
        <path class="st5" d="M210.7,396.7s3.8,1.9,4.9,6c1,3.8-1.1,36.1-1.1,36.1"/>
        <path class="st5" d="M223.7,437.5s5.5-31.3,1.5-39c-2.2-4.1-8.8-5.1-8.8-5.1"/>
      </g>
    </g>
  </g>
  <g>
    <g>
      <path class="st3" d="M178,251.3c0,.3,2.2,17.8-8.9,32.1-8.5,10.8-22.5,17.4-41.9,19.5-4.4.4-7.6,4.4-7,8.8,0,.8.3,1.5.5,2.2,1.4,3.2,4.7,5.2,8.2,4.8,23.9-2.6,41.6-11.3,52.9-25.8,15.2-19.8,12.1-43.1,11.9-44.1"/>
      <g>
        <g>
          <path class="st2" d="M95,287.8s6.7,7.7-7,4.9c-16.2-3.2-24.9-6-25.8,4.3-1,9.3,28.4,11.4,28.4,11.4,0,0-21.4.8-27.6,5.5-6.3,4.7-2.7,10.6,2.1,12.5,4.8,1.9,28.8-3.7,28.8-3.7,0,0-11.8,6.2-18,11.4-6.2,5.1-5.1,10.3,1.2,12.8,6.3,2.6,25.5-12.6,25.5-12.6,22.1-.3,31-7.4,28.3-26.9-2.7-19.5-9.7-19.1-17-22.7-7.3-3.6-9.6-9.3-9.6-9.3,0,0-5.2-10.4-10.3-6-8.9,7.7,1.4,18.5,1.4,18.5h-.4Z"/>
          <path class="st2" d="M125.4,297.6s-1-9.9,9.1-5.2c12.4,5.8,11.1,36.8-3,35.8-5.6-.4-5.9-30.6-5.9-30.6h-.1Z"/>
        </g>
        <path class="st5" d="M92.6,298.4s-5.1,16.9,4.4,29.8"/>
      </g>
    </g>
    <path class="st3" d="M193.1,302c36,35.3,94.7,41.2,138.8,26.5,30.9-10.3,62.6-34.7,73.6-80.5,24-100-74.8-141-107.8-146.1-53.4-8.2-125.4,16.9-137,97.1-6,41.3,10.7,81.6,32.5,102.8h-.1Z"/>
    <g>
      <path class="st3" d="M385.6,256.9c.3,0,17.3,4.9,26.1,20.7,6.7,12.1,7.3,27.6,1.6,46.3-1.2,4.3,1.1,8.7,5.4,9.9.8.3,1.5.3,2.3.3,3.4,0,6.6-2.2,7.7-5.6,6.9-23.1,5.9-42.8-3.2-58.9-12.2-21.8-34.9-28-35.8-28.3"/>
      <g>
        <g>
          <path class="st2" d="M386.8,347.8s9.7-3.3,1.8,8.4c-9.2,13.7-15.2,20.5-6.2,25.5,8.2,4.5,21.4-21.8,21.4-21.8,0,0-6,22.7-4.1,30.3,1.8,7.7,8.7,6.6,12.2,3,3.6-3.6,6.3-30.6,6.3-30.6,0,0,2.6,15.9,4.9,23.8,2.3,7.7,7.4,8.8,12.2,3.8,4.8-4.8-3.2-31.2-3.2-31.2,8.5-20.6,5.2-31.4-13.7-36.5-19.1-5.1-21.3,1.5-27.3,6.9-6.2,5.4-12.4,5.2-12.4,5.2,0,0-11.5.8-9.5,7.3,3.6,11.1,17.4,6,17.4,6h0Z"/>
          <path class="st2" d="M407.7,323.5s-9.5-2.9-1.2-10.3c10.2-9.2,38.2,4,31.7,16.8-2.5,5.1-30.5-6.5-30.5-6.5h0Z"/>
        </g>
        <g>
          <path class="st0" d="M425.3,339.7s-1.9,9.3,1,9.5c2.9,0-1-9.5-1-9.5h0Z"/>
          <path class="st0" d="M408.4,334.2s-7.7,3.8-5.9,6c1.8,2.2,5.9-6,5.9-6Z"/>
          <path class="st0" d="M415.9,338.5s1.1,10.3-3.6,10.3,3.6-10.3,3.6-10.3h0Z"/>
        </g>
      </g>
    </g>
  </g>
  <g>
    <g>
      <path class="st2" d="M259.4,70.3l-7.1,33.8s55.5,41.6,122.8,35l16.6-32-69.9-56.7-62.3,20h0Z"/>
      <path class="st1" d="M259.5,69.6l-3,20.6s52.9,49.4,120.1,42.8l13.6-25.5-68.7-57.3-62.2,19.4h.1Z"/>
    </g>
    <g>
      <path class="st6" d="M294.1,60.9c46.3,116.8,189.9,62.6,151.9-12.6-31.7-62.6-92.8-13.7-128.9-30.5-52.2-24.3-76.2-19.8-87.5,12.6-13.2,37.9,17.8,52.2,17.8,52.2,0,0,22.7,12.1,61.9,7.7"/>
      <path class="st0" d="M308,13.8s25.1-19.8,43.5,6.6c0,0-21.4,5.8-43.5-6.6Z"/>
      <path class="st0" d="M345.4,21.7s55.6-7,51.5,88.7l17.6-15.2,17.7,6.2S424,1.3,348.5,16.4l-3,5.4h-.1Z"/>
    </g>
  </g>
  <g>
    <g>
      <g>
        <path class="st2" d="M291.7,198.7c-2.5,18.4,6.6,34.9,20.3,36.7,13.6,1.8,26.6-11.7,29.1-30.1,2.5-18.4-6.6-34.9-20.3-36.7-13.6-1.8-26.6,11.7-29.1,30.1Z"/>
        <path class="st0" d="M313.8,207.2l12.9-1.1c.8-12.5-4.3-23.1-12.1-24.2-8.4-1.1-16.5,9.1-18.4,22.8-1.8,13.7,3.4,25.7,11.8,26.8,7.3,1,14.4-6.7,17.3-17.8l-11.7-6.7v.3Z"/>
      </g>
      <g>
        <ellipse class="st4" cx="239.1" cy="191.7" rx="33.6" ry="25" transform="translate(17.8 403.8) rotate(-82.5)"/>
        <path class="st0" d="M236.6,196.9l12.9-1.1c.8-12.5-4.3-23.1-12.1-24.2-8.4-1.1-16.5,9.1-18.4,22.8-1.8,13.7,3.4,25.7,11.8,26.8,7.3,1,14.4-6.7,17.3-17.8l-11.7-6.7v.3Z"/>
      </g>
      <path class="st0" d="M349.5,170.3s-20.6-31.7-48.6-12.6c0,0,8.1-20,28.8-12.8,20.3,7.1,19.8,25.4,19.8,25.4Z"/>
      <path class="st0" d="M269,154.8s-23.9-24.9-49.6-2.7c0,0,6.7-20.7,27.5-18,21.4,3,22.1,20.6,22.1,20.6h0Z"/>
    </g>
    <g>
      <g>
        <g>
          <path class="st5" d="M336.3,247.6s-86.2,36.2-128.1-22.5"/>
          <path class="st5" d="M338.1,233.7s-8.8,7-.1,15.2c5.6,5.4,13.3.1,13.3.1"/>
          <path class="st5" d="M209.7,213.3s3.7,9.2-4.3,11.3c-8,2.2-11.3-4.5-11.3-4.5"/>
        </g>
        <path class="st2" d="M311.7,254.9s-14.3,41.6-50.8,33.9c-32.1-6.7-33.6-44.9-33.6-44.9,0,0,35.4,24.2,84.4,10.8h0Z"/>
        <path class="st5" d="M296.2,291.9s-16.5,12.6-33.6,10.4c-17.2-2.2-27.5-18.4-27.5-18.4"/>
        <g>
          <path class="st5" d="M240.2,251s-3.6,10.4-4,18.8"/>
          <path class="st5" d="M252.5,255.6s-4.7,14.8-4.9,27.9"/>
          <line class="st5" x1="264.5" y1="257.8" x2="261" y2="288.8"/>
          <path class="st5" d="M279.2,258.9s1.8,18.5-.3,29"/>
          <path class="st5" d="M292.1,258s2.6,10.2.5,23.8"/>
        </g>
      </g>
      <path class="st5" d="M274.6,220s-21.7-10.4-25.8,5.9c-4.1,16.3,23.6,22.5,24.3,11.7"/>
    </g>
  </g>
  <g>
    <path class="st3" d="M297.2,318c-1.5,2.6-36.2,66.3,38.9,150.4,1.9,2.2,4.7,3.2,7.3,2.9,1.8-.1,3.6-.8,5.1-2.2,3.6-3.2,3.8-8.8.7-12.4-27.6-30.9-42.7-63.2-43.7-93.5-.7-22.7,6.9-36.5,6.9-36.7"/>
    <g>
      <g>
        <path class="st6" d="M333,415.7s-33.8,3-32,16.5c1.4,10.6,8.2,25.7,11.5,32.8-4.3,2.3-16.6,6.9-20.7,11-9.7,9.6.4,21.6.4,21.6,33.8,5.8,63.7-30.6,63.7-30.6-13.3-25.8-22.9-51.4-22.9-51.4h0Z"/>
        <path class="st2" d="M288.4,490.6c1.4,4.1,3.8,7.1,3.8,7.1,33.8,5.8,63.7-30.6,63.7-30.6-1.1-2.2-2.2-4.3-3.2-6.5-25.7,26.5-48.2,31.4-64.3,29.9h-.1Z"/>
      </g>
      <g>
        <path class="st2" d="M298.8,441.6s-14.3-23.8-15.7-32.3,10.3-12.1,10.3-12.1c0,0-1,10.2,11.9,6.6,5.6-1.5,6.9-4.1,6.7-6.3,0-1.9-1.1-3.4-1.1-3.4-.4-4,12.6-5.8,16.1-2.5,6.5,5.9,18.3,34.9,11.8,41.2-8.8,8.5-28.4,16.5-40.1,8.9h0Z"/>
        <g>
          <path class="st5" d="M293.7,402.3s-3.7,2.9-3.2,7.8c.7,5.9,15.7,34.2,15.7,34.2"/>
          <path class="st5" d="M301.6,404.4s-2.3,3.4-.8,7c1.4,3.6,16.1,32.7,16.1,32.7"/>
          <path class="st5" d="M308.3,402.7s4.3.3,6.9,3.6c2.5,3.2,13.6,33.5,13.6,33.5"/>
          <path class="st5" d="M336.6,434.9s-7.6-30.9-14.4-36.2c-3.7-2.9-10-1.1-10-1.1"/>
        </g>
      </g>
    </g>
  </g>
</svg>